<svg id="svg" version="1.1" xmlns="http://www.w3.org/2000/svg" xmlns:xlink="http://www.w3.org/1999/xlink" width="400" height="400" viewBox="0, 0, 400,400"><g id="svgg"><path id="path0" d="M143.000 28.800 C 142.864 29.020,141.514 29.200,140.000 29.200 C 138.486 29.200,137.136 29.380,137.000 29.600 C 136.864 29.820,135.953 30.000,134.976 30.000 C 133.999 30.000,133.200 30.180,133.200 30.400 C 133.200 30.620,132.480 30.800,131.600 30.800 C 130.720 30.800,130.000 30.980,130.000 31.200 C 130.000 31.420,129.460 31.600,128.800 31.600 C 128.140 31.600,127.600 31.780,127.600 32.000 C 127.600 32.220,127.150 32.400,126.600 32.400 C 126.050 32.400,125.600 32.547,125.600 32.728 C 125.600 32.908,124.700 33.300,123.600 33.600 C 122.500 33.900,121.600 34.292,121.600 34.472 C 121.600 34.653,121.240 34.800,120.800 34.800 C 120.360 34.800,120.000 34.980,120.000 35.200 C 120.000 35.420,119.640 35.600,119.200 35.600 C 118.760 35.600,118.400 35.780,118.400 36.000 C 118.400 36.220,118.040 36.400,117.600 36.400 C 117.160 36.400,116.800 36.580,116.800 36.800 C 116.800 37.020,116.564 37.200,116.275 37.200 C 115.987 37.200,115.364 37.560,114.892 38.000 C 114.420 38.440,113.796 38.800,113.505 38.800 C 113.214 38.800,112.717 39.160,112.400 39.600 C 112.083 40.040,111.627 40.400,111.387 40.400 C 111.147 40.400,110.602 40.715,110.175 41.100 C 109.748 41.485,108.679 42.338,107.800 42.996 C 105.635 44.614,98.000 52.280,98.000 52.835 C 98.000 53.079,97.460 53.783,96.800 54.400 C 96.140 55.017,95.600 55.743,95.600 56.014 C 95.600 56.284,95.285 56.799,94.900 57.157 C 94.515 57.516,94.004 58.167,93.764 58.604 C 93.524 59.042,92.849 60.261,92.264 61.314 C 91.679 62.367,91.200 63.492,91.200 63.814 C 91.200 64.136,91.020 64.400,90.800 64.400 C 90.580 64.400,90.400 64.760,90.400 65.200 C 90.400 65.640,90.220 66.000,90.000 66.000 C 89.780 66.000,89.600 66.360,89.600 66.800 C 89.600 67.240,89.420 67.600,89.200 67.600 C 88.980 67.600,88.800 68.140,88.800 68.800 C 88.800 69.460,88.620 70.000,88.400 70.000 C 88.180 70.000,88.000 70.360,88.000 70.800 C 88.000 71.240,87.820 71.600,87.600 71.600 C 87.380 71.600,87.200 72.140,87.200 72.800 C 87.200 73.460,87.020 74.000,86.800 74.000 C 86.580 74.000,86.400 74.619,86.400 75.376 C 86.400 76.133,86.220 76.864,86.000 77.000 C 85.780 77.136,85.600 77.946,85.600 78.800 C 85.600 79.654,85.420 80.464,85.200 80.600 C 84.980 80.736,84.800 81.917,84.800 83.224 C 84.800 84.541,84.622 85.600,84.400 85.600 C 84.140 85.600,84.000 91.275,84.000 101.826 L 84.000 118.052 82.000 120.000 C 80.900 121.071,80.000 122.190,80.000 122.486 C 80.000 122.781,79.640 123.283,79.200 123.600 C 78.760 123.917,78.400 124.497,78.400 124.888 C 78.400 125.280,78.264 125.600,78.098 125.600 C 77.684 125.600,76.868 127.647,75.546 132.000 C 74.197 136.446,75.458 150.378,77.279 151.133 C 77.455 151.207,77.600 151.612,77.600 152.033 C 77.600 152.455,77.780 152.800,78.000 152.800 C 78.220 152.800,78.400 153.160,78.400 153.600 C 78.400 154.040,78.580 154.400,78.800 154.400 C 79.020 154.400,79.204 154.625,79.209 154.900 C 79.214 155.175,79.799 156.059,80.509 156.863 C 81.219 157.668,82.340 158.969,83.000 159.755 C 83.660 160.540,84.398 161.187,84.641 161.191 C 84.883 161.196,85.646 161.740,86.337 162.400 C 87.028 163.060,87.864 163.600,88.196 163.600 C 88.528 163.600,88.801 163.735,88.803 163.900 C 88.807 164.259,90.744 165.200,91.480 165.200 C 91.766 165.200,92.001 165.335,92.003 165.500 C 92.007 165.901,93.981 166.800,94.856 166.800 C 95.239 166.800,95.664 166.980,95.800 167.200 C 95.936 167.420,96.926 167.600,98.000 167.600 C 99.074 167.600,100.064 167.780,100.200 168.000 C 100.336 168.220,101.157 168.400,102.024 168.400 C 103.553 168.400,103.600 168.441,103.600 169.776 C 103.600 170.533,103.780 171.264,104.000 171.400 C 104.220 171.536,104.400 172.357,104.400 173.224 C 104.400 174.091,104.580 174.800,104.800 174.800 C 105.020 174.800,105.200 175.430,105.200 176.200 C 105.200 176.970,105.380 177.600,105.600 177.600 C 105.820 177.600,106.000 178.140,106.000 178.800 C 106.000 179.460,106.180 180.000,106.400 180.000 C 106.620 180.000,106.800 180.540,106.800 181.200 C 106.800 181.860,106.980 182.400,107.200 182.400 C 107.420 182.400,107.600 182.760,107.600 183.200 C 107.600 183.640,107.780 184.000,108.000 184.000 C 108.220 184.000,108.400 184.379,108.400 184.842 C 108.400 185.567,110.977 191.034,111.586 191.600 C 111.704 191.710,112.056 192.295,112.368 192.900 C 112.680 193.505,113.085 194.000,113.268 194.000 C 113.450 194.000,113.600 194.272,113.600 194.604 C 113.600 194.936,114.140 195.772,114.800 196.463 C 115.460 197.154,116.000 197.880,116.000 198.077 C 116.000 198.571,126.308 208.800,126.806 208.800 C 127.027 208.800,127.772 209.340,128.463 210.000 C 129.154 210.660,129.879 211.200,130.076 211.200 C 130.273 211.200,130.820 211.560,131.292 212.000 C 131.764 212.440,132.387 212.800,132.675 212.800 C 132.964 212.800,133.200 212.980,133.200 213.200 C 133.200 213.420,133.560 213.600,134.000 213.600 C 134.895 213.600,135.275 223.659,134.400 224.200 C 134.180 224.336,134.000 224.887,134.000 225.424 C 134.000 225.961,133.820 226.400,133.600 226.400 C 133.380 226.400,133.200 226.670,133.200 227.000 C 133.200 227.679,132.574 227.805,132.200 227.200 C 131.894 226.705,129.039 226.673,128.095 227.153 C 127.713 227.348,126.873 227.753,126.229 228.053 C 125.584 228.354,123.509 230.135,121.616 232.011 C 119.723 233.887,117.554 235.863,116.796 236.403 C 116.039 236.942,114.377 238.409,113.103 239.664 C 111.012 241.722,110.573 241.971,108.588 242.219 C 107.379 242.370,106.291 242.652,106.171 242.847 C 106.051 243.041,105.243 243.200,104.376 243.200 C 103.509 243.200,102.800 243.380,102.800 243.600 C 102.800 243.820,102.080 244.000,101.200 244.000 C 100.320 244.000,99.600 244.180,99.600 244.400 C 99.600 244.620,98.880 244.800,98.000 244.800 C 97.120 244.800,96.400 244.980,96.400 245.200 C 96.400 245.420,95.781 245.600,95.024 245.600 C 94.267 245.600,93.536 245.780,93.400 246.000 C 93.264 246.220,92.533 246.400,91.776 246.400 C 91.019 246.400,90.400 246.580,90.400 246.800 C 90.400 247.020,89.680 247.200,88.800 247.200 C 87.920 247.200,87.200 247.380,87.200 247.600 C 87.200 247.820,86.480 248.000,85.600 248.000 C 84.720 248.000,84.000 248.180,84.000 248.400 C 84.000 248.620,83.280 248.800,82.400 248.800 C 81.520 248.800,80.800 248.980,80.800 249.200 C 80.800 249.420,80.181 249.600,79.424 249.600 C 78.667 249.600,77.936 249.780,77.800 250.000 C 77.664 250.220,76.933 250.400,76.176 250.400 C 75.419 250.400,74.800 250.580,74.800 250.800 C 74.800 251.020,74.080 251.200,73.200 251.200 C 72.320 251.200,71.600 251.380,71.600 251.600 C 71.600 251.820,70.880 252.000,70.000 252.000 C 69.120 252.000,68.400 252.180,68.400 252.400 C 68.400 252.620,67.680 252.800,66.800 252.800 C 65.920 252.800,65.200 252.980,65.200 253.200 C 65.200 253.420,64.660 253.600,64.000 253.600 C 63.340 253.600,62.800 253.780,62.800 254.000 C 62.800 254.220,62.547 254.400,62.238 254.400 C 61.481 254.400,58.400 256.065,58.400 256.474 C 58.400 256.653,58.124 256.800,57.786 256.800 C 57.103 256.800,56.432 257.363,52.385 261.331 C 50.853 262.832,49.600 264.317,49.600 264.631 C 49.600 264.944,49.420 265.200,49.200 265.200 C 48.980 265.200,48.800 265.560,48.800 266.000 C 48.800 266.440,48.620 266.800,48.400 266.800 C 48.180 266.800,48.000 267.160,48.000 267.600 C 48.000 268.040,47.864 268.400,47.697 268.400 C 47.331 268.400,46.400 271.267,46.400 272.394 C 46.400 272.837,46.220 273.200,46.000 273.200 C 45.768 273.200,45.600 274.507,45.600 276.320 C 45.600 278.036,45.429 279.611,45.220 279.820 C 44.866 280.174,44.725 282.904,44.195 299.700 C 44.082 303.275,43.815 306.560,43.600 307.000 C 43.386 307.440,43.133 310.590,43.039 314.000 C 42.780 323.343,42.080 337.956,41.614 343.757 C 41.386 346.594,41.200 351.499,41.200 354.657 C 41.200 358.219,41.048 360.400,40.800 360.400 C 40.549 360.400,40.400 362.933,40.400 367.200 C 40.400 371.467,40.251 374.000,40.000 374.000 C 39.749 374.000,39.600 376.467,39.600 380.600 C 39.600 384.733,39.451 387.200,39.200 387.200 C 38.678 387.200,38.678 391.077,39.200 391.400 C 39.420 391.536,39.600 392.177,39.600 392.824 C 39.600 393.471,39.780 394.000,40.000 394.000 C 40.220 394.000,40.400 394.360,40.400 394.800 C 40.400 395.240,40.580 395.600,40.800 395.600 C 41.020 395.600,41.200 395.878,41.200 396.218 C 41.200 396.895,42.932 398.800,43.548 398.800 C 43.760 398.800,44.008 399.025,44.100 399.300 C 44.233 399.699,75.289 399.800,197.600 399.800 C 319.911 399.800,350.967 399.699,351.100 399.300 C 351.192 399.025,351.572 398.800,351.945 398.800 C 352.318 398.800,352.883 398.440,353.200 398.000 C 353.517 397.560,353.986 397.200,354.242 397.200 C 354.624 397.200,356.634 395.135,357.942 393.400 C 358.629 392.488,359.600 390.226,359.600 389.539 C 359.600 389.132,359.780 388.800,360.000 388.800 C 360.220 388.800,360.400 388.091,360.400 387.224 C 360.400 386.357,360.580 385.536,360.800 385.400 C 361.322 385.078,361.322 381.600,360.800 381.600 C 360.580 381.600,360.400 380.895,360.400 380.033 C 360.400 379.172,360.265 378.407,360.100 378.333 C 359.935 378.260,359.509 377.681,359.153 377.047 C 358.798 376.412,357.988 375.602,357.353 375.247 C 356.719 374.891,356.140 374.465,356.067 374.300 C 355.993 374.135,355.599 374.000,355.190 374.000 C 354.782 374.000,354.336 373.820,354.200 373.600 C 354.064 373.380,352.613 373.200,350.976 373.200 C 349.259 373.200,348.000 373.031,348.000 372.800 C 348.000 372.580,348.180 372.400,348.400 372.400 C 348.665 372.400,348.800 352.200,348.800 312.600 C 348.800 273.000,348.665 252.800,348.400 252.800 C 348.180 252.800,348.000 252.260,348.000 251.600 C 348.000 250.940,347.820 250.400,347.600 250.400 C 347.380 250.400,347.200 250.154,347.200 249.854 C 347.200 249.078,342.997 244.800,342.235 244.800 C 341.886 244.800,341.600 244.620,341.600 244.400 C 341.600 244.180,341.251 244.000,340.824 244.000 C 340.397 244.000,339.936 243.820,339.800 243.600 C 339.637 243.336,319.596 243.200,280.976 243.200 C 241.698 243.200,222.400 243.067,222.400 242.795 C 222.400 242.269,215.421 235.293,213.600 233.999 C 212.830 233.452,210.986 231.788,209.503 230.302 C 208.019 228.816,206.480 227.600,206.083 227.600 C 205.685 227.600,205.161 227.401,204.917 227.157 C 204.454 226.694,201.522 226.832,200.300 227.375 C 199.760 227.615,199.600 227.498,199.600 226.866 C 199.600 226.416,199.420 225.936,199.200 225.800 C 198.980 225.664,198.800 225.124,198.800 224.600 C 198.800 224.076,198.620 223.536,198.400 223.400 C 197.598 222.904,197.895 212.800,198.712 212.800 C 199.103 212.800,199.683 212.440,200.000 212.000 C 200.317 211.560,200.857 211.200,201.200 211.200 C 201.543 211.200,202.083 210.840,202.400 210.400 C 202.717 209.960,203.207 209.600,203.488 209.600 C 203.770 209.600,204.000 209.420,204.000 209.200 C 204.000 208.980,204.234 208.800,204.520 208.800 C 205.347 208.800,216.000 197.882,216.000 197.035 C 216.000 196.783,216.360 196.317,216.800 196.000 C 217.240 195.683,217.600 195.143,217.600 194.800 C 217.600 194.457,217.960 193.917,218.400 193.600 C 218.840 193.283,219.200 192.786,219.200 192.495 C 219.200 192.204,219.560 191.580,220.000 191.108 C 220.440 190.636,220.800 190.013,220.800 189.725 C 220.800 189.436,220.936 189.200,221.102 189.200 C 221.269 189.200,221.656 188.615,221.964 187.900 C 222.271 187.185,222.870 185.790,223.294 184.800 C 223.718 183.810,224.222 182.701,224.414 182.335 C 224.606 181.969,224.885 180.754,225.033 179.635 C 225.182 178.516,225.460 177.600,225.652 177.600 C 225.843 177.600,226.000 177.060,226.000 176.400 C 226.000 175.740,226.180 175.200,226.400 175.200 C 226.620 175.200,226.800 174.390,226.800 173.400 C 226.800 172.410,226.980 171.600,227.200 171.600 C 227.420 171.600,227.600 170.880,227.600 170.000 L 227.600 168.400 229.376 168.400 C 230.353 168.400,231.264 168.220,231.400 168.000 C 231.536 167.780,232.436 167.600,233.400 167.600 C 234.364 167.600,235.264 167.420,235.400 167.200 C 235.536 166.980,236.177 166.800,236.824 166.800 C 237.471 166.800,238.000 166.620,238.000 166.400 C 238.000 166.180,238.253 166.000,238.562 166.000 C 239.319 166.000,242.400 164.335,242.400 163.926 C 242.400 163.747,242.720 163.600,243.112 163.600 C 243.503 163.600,244.083 163.240,244.400 162.800 C 244.717 162.360,245.211 162.000,245.497 162.000 C 246.109 162.000,250.400 157.807,250.400 157.209 C 250.400 156.984,250.550 156.800,250.732 156.800 C 250.915 156.800,251.320 156.305,251.632 155.700 C 251.944 155.095,252.289 154.510,252.399 154.400 C 252.861 153.940,254.400 150.680,254.400 150.162 C 254.400 149.853,254.580 149.600,254.800 149.600 C 255.020 149.600,255.200 149.071,255.200 148.424 C 255.200 147.777,255.380 147.136,255.600 147.000 C 255.820 146.864,256.000 145.964,256.000 145.000 C 256.000 144.036,256.180 143.136,256.400 143.000 C 256.620 142.864,256.800 141.154,256.800 139.200 C 256.800 137.246,256.620 135.536,256.400 135.400 C 256.180 135.264,256.000 134.364,256.000 133.400 C 256.000 132.436,255.820 131.536,255.600 131.400 C 255.380 131.264,255.200 130.730,255.200 130.214 C 255.200 129.264,253.652 125.912,253.100 125.667 C 252.935 125.593,252.800 125.188,252.800 124.767 C 252.800 124.345,252.632 124.000,252.427 124.000 C 252.222 124.000,251.937 123.631,251.794 123.180 C 251.651 122.729,250.918 121.745,250.167 120.993 L 248.800 119.627 248.800 95.213 C 248.800 79.204,248.662 70.800,248.400 70.800 C 248.180 70.800,248.000 70.080,248.000 69.200 C 248.000 68.320,247.820 67.600,247.600 67.600 C 247.380 67.600,247.200 67.060,247.200 66.400 C 247.200 65.740,247.020 65.200,246.800 65.200 C 246.580 65.200,246.400 64.660,246.400 64.000 C 246.400 63.340,246.220 62.800,246.000 62.800 C 245.780 62.800,245.600 62.440,245.600 62.000 C 245.600 61.560,245.420 61.200,245.200 61.200 C 244.980 61.200,244.800 60.840,244.800 60.400 C 244.800 59.960,244.620 59.600,244.400 59.600 C 244.180 59.600,244.000 59.370,244.000 59.088 C 244.000 58.807,243.640 58.317,243.200 58.000 C 242.760 57.683,242.400 57.103,242.400 56.712 C 242.400 56.320,242.249 56.000,242.064 56.000 C 241.880 56.000,241.529 55.562,241.285 55.027 C 240.524 53.357,236.300 48.800,235.512 48.800 C 235.297 48.800,234.617 48.260,234.000 47.600 C 233.383 46.940,232.591 46.400,232.240 46.400 C 231.888 46.400,231.600 46.242,231.600 46.049 C 231.600 45.855,231.060 45.473,230.400 45.200 C 229.740 44.927,229.200 44.545,229.200 44.351 C 229.200 44.158,228.958 44.000,228.661 44.000 C 228.365 44.000,227.563 43.721,226.879 43.379 C 225.072 42.478,220.234 41.200,218.629 41.200 C 217.869 41.200,217.136 41.020,217.000 40.800 C 216.854 40.563,214.396 40.400,210.976 40.400 C 207.392 40.400,205.200 40.552,205.200 40.800 C 205.200 41.020,204.330 41.200,203.267 41.200 C 202.203 41.200,201.198 41.335,201.034 41.500 C 200.869 41.665,199.894 42.000,198.867 42.246 C 197.840 42.491,196.719 42.812,196.376 42.960 C 195.803 43.205,193.976 41.624,190.552 37.918 C 189.343 36.609,188.056 35.600,187.595 35.600 C 187.378 35.600,187.200 35.420,187.200 35.200 C 187.200 34.980,186.930 34.800,186.600 34.800 C 186.270 34.800,186.000 34.620,186.000 34.400 C 186.000 34.180,185.730 34.000,185.400 34.000 C 185.070 34.000,184.800 33.820,184.800 33.600 C 184.800 33.380,184.440 33.200,184.000 33.200 C 183.560 33.200,183.200 33.020,183.200 32.800 C 183.200 32.580,182.840 32.400,182.400 32.400 C 181.960 32.400,181.600 32.220,181.600 32.000 C 181.600 31.780,181.251 31.600,180.824 31.600 C 180.397 31.600,179.936 31.420,179.800 31.200 C 179.664 30.980,179.113 30.800,178.576 30.800 C 178.039 30.800,177.600 30.620,177.600 30.400 C 177.600 30.180,176.981 30.000,176.224 30.000 C 175.467 30.000,174.736 29.820,174.600 29.600 C 174.464 29.380,173.474 29.200,172.400 29.200 C 171.326 29.200,170.336 29.020,170.200 28.800 C 170.043 28.546,165.070 28.400,156.600 28.400 C 148.130 28.400,143.157 28.546,143.000 28.800 M172.600 38.158 C 180.058 40.264,185.888 44.428,190.301 50.800 C 192.482 53.948,193.719 54.197,197.651 52.279 C 205.216 48.590,214.284 47.847,220.600 50.397 C 230.621 54.444,236.474 60.772,239.655 71.000 C 240.166 72.644,240.707 114.000,240.218 114.000 C 240.092 114.000,239.677 113.841,239.295 113.647 C 236.708 112.331,234.341 111.655,231.261 111.353 C 227.750 111.009,227.600 110.852,227.600 107.505 C 227.600 101.537,224.315 99.241,215.731 99.208 C 214.592 99.204,212.792 99.029,211.731 98.820 C 210.669 98.611,208.720 98.238,207.400 97.991 C 198.573 96.339,188.799 91.783,182.669 86.464 C 177.748 82.194,174.327 82.600,169.840 87.986 C 158.201 101.958,139.879 108.819,120.045 106.632 C 109.947 105.519,109.249 105.483,107.980 106.008 C 106.639 106.564,104.000 109.323,104.000 110.169 C 104.000 110.762,103.245 110.979,99.611 111.429 C 98.408 111.578,96.432 112.026,95.221 112.426 C 94.010 112.825,92.925 113.057,92.809 112.941 C 92.354 112.481,92.646 89.690,93.157 85.803 C 96.238 62.368,114.189 43.366,138.000 38.335 C 143.590 37.154,168.593 37.026,172.600 38.158 M178.824 93.029 C 181.710 96.507,194.224 102.688,202.200 104.576 C 203.740 104.940,205.360 105.325,205.800 105.431 C 208.125 105.993,214.431 106.800,216.491 106.800 C 220.513 106.800,220.400 106.581,220.400 114.390 C 220.400 121.960,220.440 121.855,217.982 120.729 C 214.199 118.997,212.463 118.828,198.400 118.828 C 178.204 118.828,173.498 120.865,170.739 130.800 C 170.087 133.147,170.006 133.187,165.874 133.194 C 161.862 133.201,160.800 132.817,160.800 131.361 C 160.800 129.599,158.452 125.358,156.429 123.466 C 151.875 119.206,149.984 118.828,133.200 118.828 C 119.038 118.828,116.884 119.041,113.573 120.767 C 111.167 122.022,111.161 122.013,111.286 117.500 C 111.400 113.405,111.401 113.400,112.400 113.463 C 112.950 113.497,116.232 113.819,119.693 114.179 C 126.169 114.851,134.575 114.446,140.600 113.171 C 141.700 112.939,143.276 112.651,144.103 112.532 C 144.929 112.413,145.705 112.155,145.826 111.958 C 145.948 111.761,146.451 111.600,146.944 111.600 C 147.437 111.600,148.011 111.457,148.220 111.282 C 148.429 111.107,149.320 110.735,150.200 110.455 C 158.118 107.941,166.934 102.081,174.164 94.528 C 177.049 91.514,177.458 91.383,178.824 93.029 M104.000 139.200 L 104.000 159.600 101.619 159.600 C 99.104 159.600,98.544 159.434,94.400 157.456 C 76.418 148.876,82.203 119.078,101.900 118.827 L 104.000 118.800 104.000 139.200 M233.227 119.445 C 249.995 124.420,253.480 146.704,238.990 156.301 C 235.718 158.468,232.170 159.674,229.513 159.521 L 227.400 159.400 227.296 139.600 C 227.239 128.710,227.278 119.575,227.383 119.300 C 227.653 118.597,230.618 118.670,233.227 119.445 M148.851 126.969 C 152.949 128.697,154.000 131.334,154.000 139.893 C 154.000 148.648,152.896 151.917,148.882 155.053 C 147.454 156.168,146.695 156.580,144.281 157.550 C 142.910 158.102,123.123 158.176,122.095 157.634 C 121.713 157.432,120.698 156.961,119.840 156.586 C 117.696 155.650,115.104 153.170,114.120 151.113 C 112.467 147.654,112.400 147.224,112.400 139.977 C 112.400 130.775,112.837 129.635,117.400 126.923 C 118.667 126.170,147.055 126.211,148.851 126.969 M214.133 126.998 C 218.266 128.725,219.000 130.686,219.000 140.009 L 219.000 147.818 217.689 150.481 C 216.799 152.287,215.769 153.640,214.489 154.683 C 212.688 156.150,212.039 156.522,209.481 157.550 C 208.125 158.096,188.338 158.179,187.295 157.644 C 186.913 157.448,185.727 156.871,184.661 156.361 C 179.519 153.903,177.187 148.586,177.210 139.367 C 177.227 132.214,178.348 129.422,182.077 127.233 C 183.875 126.178,211.683 125.974,214.133 126.998 M137.296 136.798 C 132.094 139.970,134.206 147.557,140.300 147.587 C 142.690 147.599,142.870 147.530,144.400 146.000 C 149.168 141.232,143.041 133.295,137.296 136.798 M190.224 136.524 C 187.269 138.336,185.975 141.644,187.248 144.126 C 190.958 151.361,201.110 146.709,198.000 139.199 C 196.985 136.749,192.417 135.177,190.224 136.524 M170.449 144.800 C 170.690 148.862,170.895 150.106,171.600 151.800 C 171.783 152.240,172.172 153.185,172.464 153.900 C 172.756 154.615,173.131 155.200,173.298 155.200 C 173.464 155.200,173.600 155.378,173.600 155.595 C 173.600 157.005,179.225 162.042,182.400 163.476 C 191.430 167.553,211.455 166.189,218.379 161.026 C 220.334 159.569,220.508 160.085,219.805 165.234 C 218.211 176.898,214.073 186.734,207.789 193.800 C 207.202 194.460,206.154 195.684,205.461 196.520 C 200.971 201.931,190.949 208.346,182.600 211.152 C 175.952 213.387,163.297 214.396,157.120 213.184 C 131.368 208.131,113.232 188.428,111.387 163.500 C 111.089 159.465,111.184 159.382,113.813 161.389 C 118.221 164.754,122.164 165.600,133.433 165.600 C 149.231 165.599,155.746 161.995,160.323 150.725 C 160.563 150.134,160.873 147.794,161.012 145.525 C 161.357 139.882,160.899 140.355,165.893 140.486 L 170.200 140.600 170.449 144.800 M148.255 172.255 C 143.070 177.439,158.579 186.488,169.739 184.789 C 176.950 183.692,185.478 178.703,185.646 175.483 C 185.887 170.870,182.379 169.678,178.632 173.100 C 171.825 179.316,161.008 179.274,154.253 173.007 C 151.855 170.782,149.965 170.545,148.255 172.255 M189.665 218.632 C 189.811 219.714,189.946 221.577,189.965 222.772 C 190.015 225.855,190.878 228.466,193.238 232.667 C 194.270 234.505,194.530 234.046,189.489 239.300 L 184.980 244.000 182.390 244.014 C 173.417 244.064,168.000 248.892,168.000 256.842 C 168.000 260.693,167.583 261.057,163.776 260.529 C 161.520 260.217,161.380 260.131,161.000 258.838 C 160.530 257.237,158.769 255.204,149.014 245.000 C 139.108 234.638,139.199 234.738,139.205 234.241 C 139.207 233.998,139.655 233.021,140.200 232.068 C 142.051 228.829,143.574 222.898,143.592 218.853 C 143.599 217.382,143.710 217.138,144.300 217.308 C 144.685 217.418,146.530 217.959,148.400 218.510 C 157.963 221.324,169.739 221.642,179.800 219.357 C 182.695 218.700,186.949 217.354,188.000 216.763 C 189.026 216.186,189.391 216.595,189.665 218.632 M144.045 250.400 C 148.140 254.690,151.967 258.769,152.550 259.464 L 153.610 260.727 152.525 262.064 C 149.115 266.262,142.062 273.600,141.434 273.600 C 141.128 273.600,140.274 272.816,139.538 271.858 C 138.131 270.027,136.737 268.333,126.993 256.621 C 123.690 252.649,120.464 248.712,119.824 247.872 L 118.662 246.344 120.431 244.738 C 122.876 242.518,125.837 239.809,128.152 237.673 L 130.104 235.871 133.352 239.235 C 135.138 241.086,139.950 246.110,144.045 250.400 M207.490 240.031 C 209.511 241.848,211.072 243.483,210.959 243.667 C 210.614 244.224,196.000 244.084,196.000 243.523 C 196.000 242.592,202.561 236.154,203.208 236.451 C 203.542 236.604,205.469 238.215,207.490 240.031 M113.076 251.700 C 114.084 252.763,117.397 256.702,119.721 259.600 C 121.098 261.317,123.827 264.626,124.010 264.800 C 124.125 264.910,125.831 266.980,127.800 269.400 C 137.736 281.612,137.722 281.600,141.890 281.600 C 144.274 281.600,145.835 280.477,150.692 275.263 C 153.281 272.484,155.940 269.650,156.600 268.966 L 157.800 267.722 162.200 267.889 C 164.620 267.981,166.826 268.129,167.102 268.216 C 167.501 268.344,167.583 277.037,167.502 310.688 L 167.400 353.000 161.600 353.262 C 153.146 353.645,149.788 354.723,145.100 358.561 C 143.834 359.597,141.835 360.886,140.657 361.425 L 138.514 362.406 114.157 362.303 L 89.800 362.200 89.697 333.352 L 89.595 304.504 88.543 303.452 C 86.589 301.498,83.416 302.328,82.375 305.064 C 82.165 305.619,82.000 312.966,82.000 321.831 L 82.000 337.609 66.340 337.505 L 50.681 337.400 50.744 333.800 C 50.779 331.820,50.980 327.860,51.190 325.000 C 51.401 322.140,51.765 316.110,52.000 311.600 C 52.235 307.090,52.595 300.790,52.800 297.600 C 53.005 294.410,53.374 288.380,53.620 284.200 C 54.492 269.349,59.124 262.924,70.600 260.643 C 71.260 260.512,80.620 258.164,91.400 255.426 C 114.252 249.620,111.545 250.086,113.076 251.700 M338.556 252.437 C 340.925 254.300,340.800 250.936,340.800 313.025 C 340.800 350.545,340.664 370.037,340.400 370.200 C 340.180 370.336,340.000 370.715,340.000 371.042 C 340.000 372.145,338.161 373.499,336.046 373.953 C 333.083 374.588,182.514 374.588,179.552 373.952 C 177.326 373.475,176.259 372.720,175.359 370.987 C 174.466 369.265,174.529 256.266,175.424 254.471 C 177.012 251.289,168.089 251.600,257.800 251.600 L 337.492 251.600 338.556 252.437 M253.200 274.243 C 247.412 275.059,246.411 275.258,246.173 275.644 C 246.052 275.840,245.601 276.000,245.171 276.000 C 244.741 276.000,244.077 276.164,243.695 276.365 C 243.313 276.566,242.010 277.200,240.800 277.774 C 233.708 281.138,228.455 285.632,224.157 292.009 C 214.402 306.482,215.892 327.617,227.580 340.574 C 230.513 343.826,236.045 348.387,237.067 348.396 C 237.323 348.398,237.593 348.541,237.667 348.712 C 238.264 350.111,248.145 353.363,253.775 354.013 C 268.140 355.671,284.865 347.556,291.600 335.660 C 291.930 335.077,292.294 334.510,292.408 334.400 C 292.979 333.851,295.257 328.668,296.011 326.200 C 296.482 324.660,297.061 322.770,297.298 322.000 C 298.015 319.672,297.809 308.216,297.000 305.400 C 296.620 304.080,296.220 302.503,296.109 301.895 C 295.998 301.287,295.749 300.692,295.554 300.571 C 295.359 300.451,295.200 300.099,295.200 299.788 C 295.200 298.654,292.628 293.745,290.591 290.990 C 286.396 285.320,281.583 281.146,276.134 278.454 C 274.190 277.494,272.287 276.549,271.905 276.354 C 271.523 276.159,270.859 276.000,270.429 276.000 C 269.999 276.000,269.548 275.840,269.427 275.644 C 269.140 275.179,266.188 274.699,258.600 273.881 C 257.720 273.786,255.290 273.949,253.200 274.243 M263.800 281.614 C 276.577 284.886,284.255 291.456,288.794 303.000 C 289.125 303.841,289.624 305.724,290.359 308.906 C 292.044 316.191,289.481 326.570,284.264 333.591 C 281.704 337.038,276.846 341.576,275.700 341.593 C 275.425 341.597,275.200 341.752,275.200 341.937 C 275.200 342.317,269.636 345.007,267.558 345.630 C 251.769 350.370,234.886 342.923,228.042 328.200 C 227.531 327.100,226.952 325.887,226.756 325.505 C 226.560 325.123,226.400 324.459,226.400 324.029 C 226.400 323.599,226.239 323.148,226.042 323.026 C 225.110 322.450,224.494 311.625,225.211 308.400 C 225.871 305.429,227.091 301.704,227.961 300.000 C 229.163 297.648,230.477 295.411,230.781 295.200 C 230.939 295.090,231.249 294.670,231.469 294.267 C 233.406 290.718,241.241 284.953,246.721 283.044 C 251.776 281.282,259.862 280.606,263.800 281.614 M239.439 302.100 C 238.318 303.255,236.689 305.010,235.821 306.000 C 234.952 306.990,233.287 308.845,232.121 310.123 C 228.997 313.544,229.077 314.821,232.661 318.826 C 241.526 328.734,240.731 328.000,242.603 328.000 C 247.916 328.000,247.462 324.094,241.406 317.721 C 239.069 315.261,238.201 313.533,239.100 313.133 C 239.265 313.060,240.748 311.470,242.394 309.600 C 244.041 307.730,245.541 306.090,245.728 305.956 C 246.275 305.561,246.117 302.060,245.525 301.468 C 243.458 299.401,241.903 299.563,239.439 302.100 M260.096 300.797 C 259.626 301.235,258.943 302.270,258.579 303.097 C 258.215 303.923,257.576 305.365,257.158 306.300 C 256.741 307.235,256.059 308.765,255.642 309.700 C 255.224 310.635,254.613 312.030,254.284 312.800 C 253.954 313.570,253.327 315.010,252.889 316.000 C 249.038 324.717,248.908 325.568,251.177 327.183 C 253.423 328.783,255.535 327.855,256.993 324.629 C 258.234 321.884,259.559 318.894,260.284 317.200 C 260.613 316.430,261.206 315.080,261.600 314.200 C 261.994 313.320,262.586 311.970,262.915 311.200 C 263.244 310.430,264.005 308.720,264.605 307.400 C 267.023 302.081,263.794 297.352,260.096 300.797 M270.938 300.772 C 267.817 302.676,269.590 306.822,276.100 312.846 C 276.921 313.606,277.004 314.649,276.300 315.367 C 269.448 322.352,268.143 324.927,270.267 327.274 C 271.951 329.134,274.436 328.317,277.459 324.909 C 278.966 323.208,281.021 320.913,282.025 319.809 C 286.466 314.921,286.644 313.674,283.409 310.156 C 283.184 309.912,281.744 308.292,280.209 306.556 C 274.145 299.701,273.429 299.254,270.938 300.772 M82.400 355.400 C 82.626 366.719,82.791 367.376,85.822 369.093 L 87.400 369.987 112.600 369.988 C 143.075 369.988,142.646 370.049,149.168 364.829 C 151.550 362.921,152.293 362.490,155.319 361.256 C 156.561 360.750,167.438 360.613,167.737 361.100 C 167.839 361.265,167.981 364.280,168.055 367.800 L 168.188 374.200 164.794 374.421 C 156.392 374.968,153.155 381.713,157.252 390.138 C 157.664 390.984,157.900 391.839,157.777 392.038 C 157.243 392.901,48.993 392.476,48.207 391.608 C 47.427 390.746,47.472 385.531,48.386 370.600 C 48.602 367.080,48.950 361.050,49.160 357.200 C 49.370 353.350,49.670 349.073,49.828 347.696 L 50.115 345.191 66.157 345.296 L 82.200 345.400 82.400 355.400 M352.159 382.107 C 353.753 384.611,350.019 391.600,347.086 391.600 C 346.735 391.600,346.336 391.780,346.200 392.000 C 346.036 392.265,316.137 392.400,257.800 392.400 C 199.463 392.400,169.564 392.265,169.400 392.000 C 169.264 391.780,168.826 391.600,168.426 391.600 C 165.452 391.600,161.592 384.008,163.563 382.037 L 164.386 381.214 257.988 381.214 L 351.590 381.213 352.159 382.107 " stroke="none" fill="#050606" fill-rule="evenodd"></path><path id="path1" d="M127.566 238.673 C 126.155 239.983,123.805 242.123,122.344 243.428 C 119.345 246.107,119.033 246.565,119.719 247.288 C 119.985 247.570,121.013 248.788,122.002 249.996 C 122.991 251.204,124.185 252.644,124.655 253.196 C 125.126 253.748,127.286 256.374,129.455 259.030 C 131.625 261.687,135.110 265.950,137.200 268.504 C 139.290 271.058,141.209 273.160,141.464 273.174 C 141.719 273.188,143.699 271.283,145.864 268.939 C 148.029 266.595,150.160 264.290,150.600 263.816 C 151.040 263.341,151.833 262.472,152.362 261.885 L 153.324 260.816 151.388 258.708 C 150.323 257.549,146.110 253.090,142.027 248.800 C 137.944 244.510,133.597 239.940,132.367 238.645 L 130.132 236.290 127.566 238.673 M199.223 240.200 L 195.896 243.600 203.397 243.600 L 210.898 243.600 208.749 241.641 C 202.310 235.771,203.396 235.935,199.223 240.200 M105.400 252.263 C 102.540 253.014,99.480 253.790,98.600 253.988 C 97.720 254.186,96.280 254.552,95.400 254.801 C 94.520 255.050,93.125 255.421,92.300 255.627 C 89.422 256.343,87.589 256.803,86.100 257.182 C 85.275 257.392,83.835 257.752,82.900 257.982 C 81.965 258.212,80.525 258.572,79.700 258.782 C 78.875 258.992,77.480 259.336,76.600 259.546 C 65.202 262.271,62.194 263.612,59.000 267.398 C 55.262 271.829,54.533 274.212,53.984 283.800 C 53.783 287.320,53.436 293.260,53.214 297.000 C 52.808 303.848,52.352 311.844,51.625 324.859 C 51.408 328.741,51.109 333.106,50.960 334.559 L 50.690 337.200 66.345 337.200 L 82.000 337.200 82.000 320.842 L 82.000 304.485 83.160 303.242 C 84.102 302.234,84.637 302.000,86.000 302.000 C 87.363 302.000,87.898 302.234,88.840 303.242 L 90.000 304.485 90.000 333.442 L 90.000 362.400 113.254 362.400 C 129.064 362.400,137.034 362.258,138.154 361.955 C 140.692 361.270,142.828 360.114,144.800 358.359 C 149.000 354.621,154.748 352.818,162.500 352.807 L 167.200 352.800 167.200 310.787 C 167.200 277.526,167.096 268.743,166.700 268.621 C 165.004 268.099,158.017 268.041,157.529 268.546 C 157.238 268.846,155.020 271.222,152.600 273.824 C 146.710 280.159,146.013 280.816,144.513 281.453 C 142.693 282.226,139.825 282.132,138.084 281.241 C 136.572 280.468,135.974 279.874,132.805 275.996 C 131.819 274.788,130.912 273.710,130.791 273.600 C 130.670 273.490,129.414 271.960,128.000 270.200 C 126.586 268.440,125.330 266.910,125.209 266.800 C 125.088 266.690,124.181 265.613,123.195 264.406 C 122.208 263.200,121.099 261.850,120.731 261.406 C 120.364 260.963,118.243 258.395,116.018 255.700 C 113.524 252.677,111.711 250.819,111.287 250.849 C 110.909 250.877,108.260 251.513,105.400 252.263 M218.932 251.900 C 240.454 251.957,275.554 251.957,296.932 251.900 C 318.309 251.843,300.700 251.796,257.800 251.796 C 214.900 251.796,197.409 251.843,218.932 251.900 M175.395 312.800 C 175.395 344.150,175.442 356.975,175.500 341.300 C 175.558 325.625,175.558 299.975,175.500 284.300 C 175.442 268.625,175.395 281.450,175.395 312.800 M256.311 273.493 C 257.251 273.578,258.691 273.577,259.511 273.491 C 260.330 273.405,259.560 273.336,257.800 273.337 C 256.040 273.339,255.370 273.409,256.311 273.493 M256.700 281.482 C 257.195 281.578,258.005 281.578,258.500 281.482 C 258.995 281.387,258.590 281.309,257.600 281.309 C 256.610 281.309,256.205 281.387,256.700 281.482 M252.200 281.887 C 250.576 282.114,246.703 283.237,246.893 283.426 C 246.977 283.510,247.755 283.374,248.622 283.125 C 249.490 282.876,251.460 282.454,253.000 282.186 C 255.581 281.739,254.951 281.503,252.200 281.887 M262.600 282.187 C 264.360 282.494,266.418 282.934,267.174 283.166 C 267.929 283.397,268.617 283.516,268.703 283.430 C 269.021 283.112,264.515 282.043,262.000 281.839 L 259.400 281.629 262.600 282.187 M269.254 283.787 C 269.567 284.100,272.400 285.223,272.400 285.035 C 272.400 284.791,269.969 283.600,269.472 283.600 C 269.249 283.600,269.151 283.684,269.254 283.787 M241.200 286.036 C 240.536 286.579,240.469 286.715,241.000 286.440 C 242.305 285.766,243.028 285.212,242.600 285.215 C 242.380 285.217,241.750 285.586,241.200 286.036 M272.800 285.390 C 272.800 285.494,273.385 285.865,274.100 286.214 L 275.400 286.848 274.400 286.033 C 273.437 285.248,272.800 284.992,272.800 285.390 M234.733 291.111 C 233.290 292.590,231.576 294.610,230.923 295.600 C 228.323 299.543,228.828 299.277,231.681 295.200 C 232.681 293.770,234.434 291.727,235.576 290.659 C 236.718 289.592,237.586 288.652,237.504 288.571 C 237.423 288.489,236.176 289.633,234.733 291.111 M280.322 291.000 C 281.532 292.210,282.623 293.200,282.747 293.200 C 282.871 293.200,281.995 292.210,280.800 291.000 C 279.605 289.790,278.514 288.800,278.375 288.800 C 278.235 288.800,279.112 289.790,280.322 291.000 M284.131 295.458 C 285.785 297.771,288.000 302.045,288.000 302.926 C 288.000 303.271,288.168 303.657,288.374 303.784 C 288.945 304.137,288.175 301.774,286.958 299.441 C 285.712 297.051,283.771 294.153,283.166 293.779 C 282.932 293.635,283.367 294.390,284.131 295.458 M260.800 299.606 C 260.370 299.888,260.555 299.931,261.454 299.759 C 262.994 299.464,265.465 300.544,265.822 301.669 C 265.960 302.104,266.161 302.372,266.269 302.264 C 267.586 300.947,262.515 298.482,260.800 299.606 M241.905 299.883 C 242.402 299.979,243.122 299.975,243.505 299.875 C 243.887 299.775,243.480 299.696,242.600 299.701 C 241.720 299.705,241.407 299.787,241.905 299.883 M272.100 299.876 C 272.485 299.976,273.115 299.976,273.500 299.876 C 273.885 299.775,273.570 299.693,272.800 299.693 C 272.030 299.693,271.715 299.775,272.100 299.876 M237.948 302.715 C 236.547 304.209,234.431 306.594,233.247 308.015 C 230.884 310.852,232.982 308.816,236.163 305.184 C 237.023 304.203,238.455 302.635,239.346 301.700 C 240.237 300.765,240.861 300.000,240.732 300.000 C 240.603 300.000,239.350 301.222,237.948 302.715 M245.080 300.601 C 246.293 301.450,246.936 303.591,246.401 304.998 C 245.822 306.521,246.170 306.720,246.791 305.221 C 247.532 303.433,246.144 300.000,244.682 300.000 C 244.429 300.000,244.608 300.271,245.080 300.601 M258.998 300.802 C 258.598 301.244,258.366 301.699,258.482 301.815 C 258.597 301.930,258.990 301.569,259.355 301.012 C 260.152 299.796,259.993 299.702,258.998 300.802 M269.923 300.700 C 269.218 301.521,268.690 302.400,268.901 302.400 C 268.983 302.400,269.449 301.860,269.937 301.200 C 270.901 299.896,270.892 299.572,269.923 300.700 M279.470 305.200 C 282.087 308.170,284.628 311.119,285.115 311.754 C 285.602 312.389,285.994 312.749,285.987 312.554 C 285.966 311.948,281.751 307.074,277.055 302.222 C 275.765 300.890,276.852 302.230,279.470 305.200 M266.321 303.600 C 266.205 304.150,265.713 305.590,265.227 306.800 C 264.740 308.010,264.508 308.820,264.709 308.600 C 265.339 307.912,266.887 303.661,266.705 303.118 C 266.610 302.833,266.437 303.050,266.321 303.600 M226.446 304.667 C 226.421 304.924,226.284 305.464,226.141 305.867 C 225.940 306.436,225.994 306.497,226.379 306.142 C 226.652 305.891,226.789 305.351,226.684 304.942 C 226.579 304.534,226.472 304.410,226.446 304.667 M256.600 305.861 C 256.264 306.665,256.082 307.415,256.195 307.528 C 256.308 307.641,256.400 307.635,256.400 307.516 C 256.400 307.396,256.672 306.646,257.005 305.849 C 257.338 305.052,257.521 304.400,257.411 304.400 C 257.301 304.400,256.936 305.058,256.600 305.861 M288.846 305.200 C 288.827 305.750,288.987 306.470,289.200 306.800 C 289.694 307.564,289.694 306.742,289.200 305.200 L 288.880 304.200 288.846 305.200 M268.968 305.329 C 269.239 306.190,274.048 311.926,274.536 311.970 C 274.721 311.986,273.713 310.695,272.297 309.100 C 270.881 307.505,269.501 305.840,269.231 305.400 C 268.825 304.739,268.779 304.727,268.968 305.329 M242.552 309.900 C 239.728 313.026,238.072 315.233,240.234 312.990 C 241.915 311.246,245.708 306.800,245.516 306.800 C 245.426 306.800,244.093 308.195,242.552 309.900 M225.418 309.418 C 225.265 310.439,225.230 311.363,225.340 311.473 C 225.450 311.583,225.665 310.839,225.818 309.818 C 225.971 308.798,226.006 307.873,225.896 307.763 C 225.786 307.653,225.571 308.398,225.418 309.418 M289.796 313.976 C 289.795 317.705,289.915 319.870,290.074 318.976 C 290.428 316.985,290.425 311.560,290.069 309.200 C 289.912 308.156,289.797 310.161,289.796 313.976 M255.000 309.461 C 254.664 310.265,254.482 311.015,254.595 311.128 C 254.708 311.241,254.800 311.235,254.800 311.116 C 254.800 310.996,255.072 310.246,255.405 309.449 C 255.738 308.652,255.921 308.000,255.811 308.000 C 255.701 308.000,255.336 308.658,255.000 309.461 M264.000 309.284 C 264.000 309.404,263.728 310.154,263.395 310.951 C 263.062 311.748,262.879 312.400,262.989 312.400 C 263.306 312.400,264.433 309.500,264.205 309.272 C 264.092 309.159,264.000 309.165,264.000 309.284 M253.600 312.601 C 253.390 313.152,252.850 314.411,252.400 315.400 C 251.082 318.293,250.755 319.275,251.201 318.999 C 251.421 318.864,251.600 318.589,251.600 318.388 C 251.600 318.188,252.050 317.039,252.601 315.835 C 253.923 312.944,254.425 311.600,254.180 311.600 C 254.070 311.600,253.809 312.051,253.600 312.601 M262.400 312.884 C 262.400 313.004,262.128 313.754,261.795 314.551 C 261.462 315.348,261.279 316.000,261.389 316.000 C 261.706 316.000,262.833 313.100,262.605 312.872 C 262.492 312.759,262.400 312.765,262.400 312.884 M239.516 315.000 C 239.744 315.440,240.531 316.340,241.264 317.000 C 242.297 317.930,242.410 317.975,241.765 317.200 C 239.940 315.006,239.086 314.171,239.516 315.000 M272.112 319.000 C 270.523 320.801,269.114 322.618,268.981 323.037 C 268.760 323.734,268.782 323.731,269.238 323.000 C 269.512 322.560,270.994 320.803,272.530 319.095 C 274.066 317.387,275.250 315.931,275.162 315.858 C 275.073 315.786,273.700 317.200,272.112 319.000 M225.459 318.600 C 225.593 319.700,225.769 320.675,225.851 320.767 C 226.164 321.117,225.926 318.161,225.580 317.400 C 225.335 316.861,225.295 317.254,225.459 318.600 M231.435 318.500 C 232.091 319.215,233.584 320.843,234.753 322.117 C 235.922 323.392,236.816 324.280,236.739 324.090 C 236.460 323.398,230.989 317.266,230.622 317.234 C 230.413 317.215,230.780 317.785,231.435 318.500 M281.300 321.000 C 279.485 323.052,278.000 324.849,278.000 324.994 C 278.000 325.305,278.083 325.219,282.149 320.700 C 283.881 318.775,285.141 317.216,284.949 317.235 C 284.757 317.254,283.115 318.948,281.300 321.000 M244.648 320.925 C 245.502 321.874,246.270 322.599,246.356 322.536 C 246.586 322.367,243.861 319.274,243.448 319.234 C 243.254 319.215,243.794 319.976,244.648 320.925 M288.980 322.300 C 288.851 322.905,288.577 323.813,288.372 324.319 C 287.799 325.733,287.962 326.360,288.550 325.000 C 289.130 323.656,289.678 321.200,289.398 321.200 C 289.297 321.200,289.109 321.695,288.980 322.300 M226.028 321.876 C 226.118 322.915,226.744 323.796,226.772 322.924 C 226.787 322.442,226.620 321.936,226.400 321.800 C 226.180 321.664,226.013 321.698,226.028 321.876 M246.617 324.123 C 246.898 325.245,245.980 327.320,244.900 328.003 C 244.426 328.303,244.394 328.397,244.800 328.292 C 246.296 327.908,247.856 324.053,246.784 323.390 C 246.516 323.225,246.457 323.486,246.617 324.123 M237.200 324.744 C 237.200 326.319,242.804 329.793,243.729 328.792 C 244.101 328.390,244.048 328.336,243.478 328.537 C 242.360 328.932,240.351 327.890,238.700 326.060 C 237.875 325.146,237.200 324.554,237.200 324.744 M249.416 326.000 C 250.053 327.261,251.373 328.399,252.170 328.375 C 252.904 328.352,252.885 328.305,252.000 327.965 C 251.450 327.753,250.575 327.090,250.056 326.490 C 249.537 325.891,249.249 325.670,249.416 326.000 M256.383 326.433 C 256.138 326.890,255.366 327.513,254.669 327.817 C 253.666 328.253,253.577 328.372,254.245 328.384 C 255.068 328.400,257.200 326.639,257.200 325.945 C 257.200 325.354,256.847 325.564,256.383 326.433 M276.370 326.652 C 274.153 329.056,271.631 329.144,269.641 326.887 C 268.738 325.862,268.717 325.857,269.287 326.800 C 270.162 328.246,272.198 329.337,273.440 329.026 C 274.340 328.800,278.165 325.636,277.570 325.610 C 277.443 325.605,276.903 326.073,276.370 326.652 M227.600 326.545 C 227.600 328.276,233.394 336.340,236.334 338.700 C 238.565 340.491,238.850 340.340,236.711 338.500 C 233.961 336.134,230.848 332.256,229.349 329.328 C 227.954 326.605,227.600 326.041,227.600 326.545 M286.418 328.900 C 285.717 330.275,285.319 331.220,285.534 331.000 C 286.284 330.232,288.199 326.400,287.833 326.400 C 287.756 326.400,287.119 327.525,286.418 328.900 M283.827 333.160 C 283.233 334.019,281.516 335.909,280.012 337.360 C 277.145 340.128,276.669 340.888,279.147 338.741 C 281.461 336.737,285.720 331.600,285.068 331.600 C 284.981 331.600,284.422 332.302,283.827 333.160 M275.424 341.013 C 274.996 341.336,274.827 341.600,275.047 341.600 C 275.267 341.600,275.796 341.336,276.224 341.013 C 276.651 340.690,276.820 340.425,276.600 340.425 C 276.380 340.425,275.851 340.690,275.424 341.013 M249.400 345.600 C 250.501 346.073,250.892 346.073,250.600 345.600 C 250.464 345.380,249.958 345.213,249.476 345.228 C 248.631 345.255,248.629 345.269,249.400 345.600 M265.200 345.600 C 264.667 345.945,264.667 345.988,265.200 345.988 C 265.530 345.988,266.070 345.813,266.400 345.600 C 266.933 345.255,266.933 345.212,266.400 345.212 C 266.070 345.212,265.530 345.387,265.200 345.600 M253.276 346.460 C 254.451 346.791,260.625 346.786,262.177 346.453 C 262.825 346.314,260.879 346.200,257.854 346.200 C 254.828 346.200,252.768 346.317,253.276 346.460 M163.356 382.571 C 163.235 382.885,163.204 383.560,163.286 384.071 C 163.395 384.754,163.488 384.604,163.637 383.500 C 163.847 381.947,163.736 381.581,163.356 382.571 " stroke="none" fill="#3f76bd" fill-rule="evenodd"></path><path id="path2" d="M174.367 95.101 C 167.619 102.202,159.140 107.940,151.200 110.780 C 150.430 111.055,149.440 111.428,149.000 111.607 C 148.560 111.786,147.750 112.050,147.200 112.194 C 146.650 112.337,145.570 112.621,144.800 112.826 C 135.258 115.360,123.947 115.846,113.500 114.170 L 112.000 113.930 112.000 117.365 C 112.000 119.254,112.056 120.800,112.125 120.800 C 112.194 120.800,113.034 120.421,113.993 119.958 C 116.833 118.586,120.591 118.324,135.419 118.466 L 149.443 118.600 152.485 120.104 C 155.533 121.611,159.600 125.342,159.600 126.632 C 159.600 126.945,159.780 127.200,160.000 127.200 C 160.220 127.200,160.400 127.472,160.400 127.805 C 160.400 128.138,160.559 128.723,160.753 129.105 C 160.947 129.487,161.266 130.340,161.462 131.000 L 161.818 132.200 165.856 132.313 L 169.893 132.427 170.136 130.913 C 170.767 126.968,174.519 122.251,178.624 120.241 C 182.039 118.569,185.145 118.318,200.597 118.466 L 214.600 118.600 216.948 119.700 C 218.240 120.305,219.365 120.800,219.448 120.800 C 219.800 120.800,219.570 108.029,219.215 107.809 C 219.004 107.679,216.889 107.399,214.515 107.189 C 200.183 105.919,184.515 99.948,178.430 93.438 C 177.152 92.070,177.310 92.005,174.367 95.101 M100.200 119.477 C 98.634 119.681,94.887 121.139,93.538 122.068 C 92.954 122.471,92.358 122.800,92.212 122.800 C 91.367 122.800,87.371 127.569,86.048 130.156 C 79.680 142.608,87.626 157.483,101.500 159.084 L 103.200 159.281 103.200 139.240 L 103.200 119.200 102.300 119.260 C 101.805 119.293,100.860 119.390,100.200 119.477 M228.279 119.454 C 228.126 119.608,228.000 128.613,228.000 139.467 L 228.000 159.200 229.472 159.200 C 232.508 159.200,238.525 156.479,241.148 153.920 C 243.096 152.020,246.000 147.939,246.000 147.102 C 246.000 146.804,246.151 146.389,246.336 146.180 C 249.560 142.529,247.081 130.895,241.898 125.354 C 238.476 121.697,229.797 117.936,228.279 119.454 M117.543 127.560 C 113.711 129.476,112.798 131.816,112.805 139.704 C 112.814 150.493,115.222 154.681,122.828 157.139 C 125.487 157.997,141.800 157.750,144.366 156.812 C 151.430 154.231,153.200 150.839,153.200 139.890 C 153.200 131.340,151.862 127.671,148.724 127.613 C 148.352 127.606,147.936 127.420,147.800 127.200 C 147.296 126.385,119.226 126.719,117.543 127.560 M182.712 127.575 C 178.748 129.556,178.400 130.557,178.400 139.967 C 178.400 144.391,178.559 148.323,178.753 148.705 C 178.948 149.087,179.351 149.919,179.649 150.552 C 181.030 153.487,184.109 155.938,187.960 157.166 C 190.710 158.044,206.997 157.724,209.773 156.738 C 216.298 154.422,218.800 149.723,218.800 139.789 C 218.800 131.930,217.330 128.616,213.240 127.253 C 210.674 126.398,184.515 126.674,182.712 127.575 M144.094 136.754 C 147.995 139.484,147.413 145.679,143.062 147.744 C 140.348 149.032,136.801 148.248,135.206 146.008 C 130.794 139.813,137.897 132.418,144.094 136.754 M196.529 136.590 C 198.265 137.728,199.325 140.163,199.100 142.500 C 198.312 150.697,186.400 150.009,186.400 141.767 C 186.400 136.658,192.148 133.720,196.529 136.590 M161.998 143.500 C 161.993 149.382,159.717 155.085,155.703 159.271 C 150.391 164.812,147.486 165.717,134.388 165.908 C 121.533 166.097,118.844 165.602,113.900 162.134 L 112.000 160.801 112.000 163.157 C 112.000 183.352,130.212 205.750,151.000 211.121 C 151.880 211.348,153.320 211.720,154.200 211.946 C 158.585 213.077,169.258 213.367,174.400 212.496 C 198.245 208.457,216.419 189.379,219.204 165.464 C 219.760 160.691,219.888 160.836,216.757 162.714 C 210.118 166.694,189.835 167.525,182.446 164.120 C 174.767 160.581,170.244 153.682,169.714 144.700 L 169.484 140.800 165.742 140.800 L 162.000 140.800 161.998 143.500 M152.074 170.753 C 152.583 170.947,153.787 171.826,154.749 172.707 C 159.574 177.122,167.039 178.414,173.200 175.901 C 175.580 174.930,176.262 174.492,178.337 172.600 C 181.782 169.459,185.525 170.061,186.240 173.871 C 187.573 180.975,170.284 187.899,159.400 184.620 C 152.637 182.582,146.792 177.989,146.809 174.725 C 146.825 171.665,149.391 169.730,152.074 170.753 M84.480 191.680 C 84.216 191.944,84.000 192.396,84.000 192.685 C 84.000 192.974,83.841 193.523,83.647 193.905 C 83.452 194.287,83.057 195.140,82.768 195.800 C 82.479 196.460,81.558 197.675,80.721 198.500 C 79.884 199.324,79.224 200.134,79.255 200.300 C 79.285 200.465,78.927 200.796,78.457 201.036 C 77.988 201.275,77.724 201.590,77.869 201.736 C 78.014 201.881,77.800 202.000,77.392 202.000 C 76.985 202.000,76.280 202.348,75.826 202.774 C 75.372 203.200,74.550 203.622,74.000 203.712 C 73.450 203.803,72.685 203.995,72.300 204.139 C 71.915 204.282,71.333 204.483,71.007 204.585 C 70.635 204.701,70.511 205.024,70.675 205.450 C 70.870 205.959,70.793 206.049,70.368 205.807 C 69.948 205.567,69.912 205.605,70.229 205.951 C 70.466 206.208,71.069 206.498,71.570 206.594 C 72.071 206.691,72.731 206.977,73.036 207.230 C 73.340 207.483,73.862 207.585,74.195 207.457 C 74.528 207.330,74.800 207.399,74.800 207.613 C 74.800 207.826,75.070 208.000,75.400 208.000 C 75.730 208.000,76.000 208.180,76.000 208.400 C 76.000 208.620,76.339 208.800,76.754 208.800 C 77.483 208.800,81.600 212.596,81.600 213.268 C 81.600 213.989,81.736 214.220,82.454 214.723 C 82.864 215.010,83.200 215.696,83.200 216.246 C 83.200 216.812,83.374 217.140,83.600 217.000 C 83.824 216.862,84.000 217.170,84.000 217.700 C 84.000 218.829,84.853 220.102,85.692 220.225 C 86.107 220.286,86.573 219.478,87.194 217.619 C 88.430 213.917,92.501 209.105,94.829 208.594 C 95.473 208.452,96.000 208.171,96.000 207.968 C 96.000 207.766,96.450 207.600,97.000 207.600 C 97.550 207.600,98.000 207.450,98.000 207.267 C 98.000 207.083,98.270 206.903,98.600 206.867 C 98.930 206.830,99.470 206.770,99.800 206.733 C 100.650 206.639,100.567 204.827,99.700 204.558 C 99.315 204.439,98.687 204.175,98.305 203.971 C 97.923 203.767,97.361 203.600,97.056 203.600 C 94.870 203.600,88.000 197.103,88.000 195.037 C 88.000 194.687,87.843 194.400,87.651 194.400 C 87.459 194.400,87.187 193.680,87.046 192.800 C 86.776 191.109,85.575 190.585,84.480 191.680 M186.800 217.888 C 185.369 218.521,184.789 218.694,180.600 219.730 C 173.958 221.373,166.739 221.892,159.800 221.224 C 154.036 220.670,152.878 220.431,144.700 218.106 C 144.087 217.931,144.000 218.217,144.000 220.407 C 144.000 223.833,142.884 228.138,141.114 231.541 C 139.677 234.302,139.689 234.401,141.700 236.505 C 160.877 256.562,160.220 255.838,161.296 258.093 L 162.200 259.986 164.700 259.993 L 167.200 260.000 167.200 257.204 C 167.200 251.397,171.992 244.400,175.970 244.400 C 176.401 244.400,176.864 244.220,177.000 244.000 C 177.136 243.779,178.894 243.604,180.924 243.609 L 184.600 243.618 189.058 238.911 L 193.515 234.204 192.829 233.202 C 190.799 230.240,189.588 226.254,189.269 221.488 C 188.977 217.116,188.877 216.970,186.800 217.888 M178.200 252.377 C 175.584 253.452,175.800 248.021,175.800 312.833 L 175.800 371.182 176.909 372.291 L 178.018 373.400 257.527 373.400 C 346.677 373.400,338.680 373.682,339.602 370.502 C 339.909 369.442,340.003 352.144,339.919 311.709 L 339.800 254.418 338.691 253.309 L 337.582 252.200 258.291 252.124 C 214.681 252.082,178.640 252.196,178.200 252.377 M262.523 273.612 C 266.520 274.185,269.246 274.854,272.200 275.988 C 273.967 276.666,280.099 279.838,280.730 280.400 C 281.100 280.730,282.413 281.768,283.648 282.707 C 298.041 293.654,302.623 316.111,293.868 332.800 C 279.425 360.331,240.604 362.276,223.697 336.316 C 213.132 320.096,215.504 298.625,229.365 285.000 C 238.083 276.431,251.069 271.971,262.523 273.612 M50.247 348.100 C 50.128 349.475,49.850 354.290,49.629 358.800 C 49.408 363.310,48.918 372.259,48.539 378.686 C 47.873 390.001,47.875 390.399,48.588 391.186 C 49.321 391.997,49.530 392.000,103.455 392.000 L 157.586 392.000 156.885 390.700 C 152.379 382.349,156.016 374.369,164.658 373.648 C 167.177 373.438,167.763 373.268,167.614 372.793 C 167.511 372.467,167.362 369.725,167.283 366.700 L 167.140 361.200 162.481 361.200 C 156.288 361.200,153.586 362.031,149.681 365.136 C 146.372 367.767,144.596 368.725,140.772 369.945 C 139.763 370.266,131.601 370.400,113.019 370.400 C 79.083 370.400,82.000 371.791,82.000 355.608 L 82.000 345.600 66.232 345.600 L 50.464 345.600 50.247 348.100 M163.600 383.725 C 163.600 387.258,166.356 390.346,170.600 391.570 C 172.460 392.106,343.685 391.970,345.877 391.430 C 348.711 390.733,352.000 386.529,352.000 383.604 L 352.000 382.400 257.800 382.400 L 163.600 382.400 163.600 383.725 " stroke="none" fill="#f0e3d9" fill-rule="evenodd"></path><path id="path3" d="M240.000 0.286 C 239.008 0.656,238.000 1.914,238.000 2.783 C 238.000 3.232,237.820 3.600,237.600 3.600 C 237.380 3.600,237.200 4.309,237.200 5.176 C 237.200 6.043,237.380 6.864,237.600 7.000 C 237.820 7.136,238.000 7.515,238.000 7.842 C 238.000 8.623,239.793 10.400,240.582 10.400 C 240.922 10.400,241.200 10.580,241.200 10.800 C 241.200 11.020,242.190 11.200,243.400 11.200 C 244.610 11.200,245.600 11.020,245.600 10.800 C 245.600 10.580,245.878 10.400,246.218 10.400 C 247.018 10.400,248.800 8.618,248.800 7.818 C 248.800 7.478,248.980 7.200,249.200 7.200 C 249.420 7.200,249.600 6.390,249.600 5.400 C 249.600 4.410,249.420 3.600,249.200 3.600 C 248.980 3.600,248.800 3.366,248.800 3.080 C 248.800 1.835,247.759 0.452,246.655 0.231 C 245.231 -0.054,240.816 -0.017,240.000 0.286 M144.400 37.614 C 118.175 39.559,96.565 59.882,93.157 85.803 C 92.646 89.690,92.354 112.481,92.809 112.941 C 92.925 113.057,94.010 112.825,95.221 112.426 C 96.432 112.026,98.408 111.578,99.611 111.429 C 103.245 110.979,104.000 110.762,104.000 110.169 C 104.000 109.323,106.639 106.564,107.980 106.008 C 109.249 105.483,109.947 105.519,120.045 106.632 C 139.879 108.819,158.201 101.958,169.840 87.986 C 174.327 82.600,177.748 82.194,182.669 86.464 C 188.799 91.783,198.573 96.339,207.400 97.991 C 208.720 98.238,210.669 98.611,211.731 98.820 C 212.792 99.029,214.592 99.204,215.731 99.208 C 224.315 99.241,227.600 101.537,227.600 107.505 C 227.600 110.852,227.750 111.009,231.261 111.353 C 234.341 111.655,236.708 112.331,239.295 113.647 C 239.677 113.841,240.092 114.000,240.218 114.000 C 240.707 114.000,240.166 72.644,239.655 71.000 C 236.474 60.772,230.621 54.444,220.600 50.397 C 214.284 47.847,205.216 48.590,197.651 52.279 C 193.719 54.197,192.482 53.948,190.301 50.800 C 185.888 44.428,180.058 40.264,172.600 38.158 C 170.145 37.464,151.312 37.101,144.400 37.614 M174.164 94.528 C 166.934 102.081,158.118 107.941,150.200 110.455 C 149.320 110.735,148.429 111.107,148.220 111.282 C 148.011 111.457,147.437 111.600,146.944 111.600 C 146.451 111.600,145.948 111.761,145.826 111.958 C 145.705 112.155,144.929 112.413,144.103 112.532 C 143.276 112.651,141.700 112.939,140.600 113.171 C 134.575 114.446,126.169 114.851,119.693 114.179 C 116.232 113.819,112.950 113.497,112.400 113.463 C 111.401 113.400,111.400 113.405,111.286 117.500 C 111.160 122.019,111.163 122.023,113.596 120.755 C 114.488 120.290,116.159 119.666,117.309 119.367 L 119.400 118.825 117.600 118.953 C 116.610 119.024,115.001 119.468,114.025 119.941 C 113.049 120.413,112.194 120.800,112.125 120.800 C 112.056 120.800,112.000 119.254,112.000 117.365 L 112.000 113.930 113.500 114.170 C 123.947 115.846,135.258 115.360,144.800 112.826 C 145.570 112.621,146.650 112.337,147.200 112.194 C 147.750 112.050,148.560 111.786,149.000 111.607 C 149.440 111.428,150.430 111.055,151.200 110.780 C 159.166 107.931,167.528 102.265,174.461 95.018 L 177.123 92.237 178.797 93.750 C 186.647 100.842,200.126 105.914,214.515 107.189 C 216.889 107.399,219.004 107.679,219.215 107.809 C 219.576 108.032,219.797 120.800,219.440 120.800 C 219.352 120.800,218.317 120.352,217.140 119.804 C 215.963 119.256,214.370 118.826,213.600 118.848 C 212.274 118.886,212.306 118.915,214.200 119.398 C 215.300 119.678,217.002 120.276,217.982 120.726 C 220.440 121.856,220.400 121.961,220.400 114.390 C 220.400 106.581,220.513 106.800,216.491 106.800 C 214.431 106.800,208.125 105.993,205.800 105.431 C 205.360 105.325,203.740 104.940,202.200 104.576 C 194.224 102.688,181.710 96.507,178.824 93.029 C 177.458 91.383,177.049 91.514,174.164 94.528 M126.300 118.699 C 130.095 118.765,136.305 118.765,140.100 118.699 C 143.895 118.634,140.790 118.580,133.200 118.580 C 125.610 118.580,122.505 118.634,126.300 118.699 M191.500 118.699 C 195.295 118.765,201.505 118.765,205.300 118.699 C 209.095 118.634,205.990 118.580,198.400 118.580 C 190.810 118.580,187.705 118.634,191.500 118.699 M98.200 119.360 C 80.375 125.001,77.922 149.593,94.400 157.456 C 98.544 159.434,99.104 159.600,101.619 159.600 L 104.000 159.600 104.000 139.200 L 104.000 118.800 101.900 118.827 C 100.745 118.841,99.080 119.081,98.200 119.360 M149.000 119.382 C 154.794 120.811,160.800 126.908,160.800 131.361 C 160.800 132.817,161.862 133.201,165.874 133.194 C 170.006 133.187,170.087 133.147,170.739 130.800 C 172.339 125.039,176.607 120.906,182.556 119.357 L 184.600 118.825 182.798 118.952 C 177.453 119.330,171.017 125.411,170.136 130.913 L 169.893 132.427 165.856 132.313 L 161.818 132.200 161.462 131.000 C 161.266 130.340,160.947 129.487,160.753 129.105 C 160.559 128.723,160.400 128.138,160.400 127.805 C 160.400 127.472,160.220 127.200,160.000 127.200 C 159.780 127.200,159.600 126.945,159.600 126.632 C 159.600 124.343,151.587 118.748,148.446 118.844 C 147.043 118.887,147.059 118.903,149.000 119.382 M227.383 119.300 C 227.278 119.575,227.239 128.710,227.296 139.600 L 227.400 159.400 229.513 159.521 C 232.170 159.674,235.718 158.468,238.990 156.301 C 253.480 146.704,249.995 124.420,233.227 119.445 C 230.618 118.670,227.653 118.597,227.383 119.300 M103.200 139.240 L 103.200 159.281 101.500 159.084 C 87.626 157.483,79.680 142.608,86.048 130.156 C 87.371 127.569,91.367 122.800,92.212 122.800 C 92.358 122.800,92.954 122.471,93.538 122.068 C 95.629 120.627,99.264 119.462,102.300 119.260 L 103.200 119.200 103.200 139.240 M233.400 120.067 C 240.047 122.331,245.130 127.554,246.910 133.948 C 247.894 137.482,247.550 144.805,246.336 146.180 C 246.151 146.389,246.000 146.804,246.000 147.102 C 246.000 147.939,243.096 152.020,241.148 153.920 C 238.525 156.479,232.508 159.200,229.472 159.200 L 228.000 159.200 228.000 139.467 C 228.000 128.613,228.126 119.608,228.279 119.454 C 228.612 119.121,231.712 119.492,233.400 120.067 M117.400 126.923 C 112.837 129.635,112.400 130.775,112.400 139.977 C 112.400 147.224,112.467 147.654,114.120 151.113 C 115.104 153.170,117.696 155.650,119.840 156.586 C 120.698 156.961,121.713 157.432,122.095 157.634 C 123.123 158.176,142.910 158.102,144.281 157.550 C 151.960 154.463,154.000 150.757,154.000 139.893 C 154.000 131.334,152.949 128.697,148.851 126.969 C 147.055 126.211,118.667 126.170,117.400 126.923 M182.077 127.233 C 178.348 129.422,177.227 132.214,177.210 139.367 C 177.187 148.586,179.519 153.903,184.661 156.361 C 185.727 156.871,186.913 157.448,187.295 157.644 C 188.338 158.179,208.125 158.096,209.481 157.550 C 212.038 156.522,212.688 156.151,214.478 154.692 C 216.698 152.884,218.814 149.015,218.774 146.836 C 218.749 145.501,218.706 145.554,218.160 147.587 C 216.959 152.056,214.063 155.215,209.773 156.738 C 206.997 157.724,190.710 158.044,187.960 157.166 C 184.109 155.938,181.030 153.487,179.649 150.552 C 179.351 149.919,178.948 149.087,178.753 148.705 C 177.898 147.024,178.337 132.014,179.281 130.662 C 181.950 126.840,182.145 126.800,198.189 126.800 C 217.735 126.800,218.306 127.138,218.830 139.000 L 219.095 145.000 219.025 138.600 C 218.940 130.790,218.027 128.625,214.133 126.998 C 211.683 125.974,183.875 126.178,182.077 127.233 M147.800 127.200 C 147.936 127.420,148.352 127.606,148.724 127.613 C 153.909 127.710,155.346 146.342,150.644 152.507 C 149.261 154.319,147.065 155.826,144.366 156.812 C 141.800 157.750,125.487 157.997,122.828 157.139 C 115.222 154.681,112.814 150.493,112.805 139.704 C 112.798 131.816,113.711 129.476,117.543 127.560 C 119.226 126.719,147.296 126.385,147.800 127.200 M138.848 135.644 C 136.878 136.047,135.527 137.188,134.432 139.375 C 131.774 144.680,137.605 150.333,143.062 147.744 C 149.922 144.489,146.310 134.118,138.848 135.644 M191.392 135.609 C 188.431 136.228,186.400 138.735,186.400 141.767 C 186.400 150.009,198.312 150.697,199.100 142.500 C 199.524 138.083,195.739 134.698,191.392 135.609 M142.720 136.560 C 146.475 138.506,147.294 143.106,144.400 146.000 C 140.645 149.755,134.396 147.080,134.401 141.720 C 134.406 137.633,139.132 134.701,142.720 136.560 M195.810 136.985 C 199.337 139.052,199.553 144.515,196.195 146.700 C 190.171 150.618,183.565 142.872,188.624 137.822 C 190.739 135.710,193.155 135.429,195.810 136.985 M161.425 140.886 C 161.336 141.169,161.151 143.256,161.012 145.525 C 160.873 147.794,160.563 150.134,160.323 150.725 C 155.746 161.995,149.231 165.599,133.433 165.600 C 122.164 165.600,118.221 164.754,113.813 161.389 C 111.184 159.382,111.089 159.465,111.387 163.500 C 112.910 184.081,126.052 201.845,145.800 210.016 C 163.833 217.478,185.376 213.798,201.200 200.551 C 202.850 199.170,204.767 197.356,205.461 196.520 C 206.154 195.684,207.202 194.460,207.789 193.800 C 214.073 186.734,218.211 176.898,219.805 165.234 C 220.508 160.085,220.334 159.569,218.379 161.026 C 212.092 165.715,193.381 167.458,184.200 164.210 C 180.167 162.784,173.600 157.447,173.600 155.595 C 173.600 155.378,173.464 155.200,173.298 155.200 C 173.131 155.200,172.756 154.615,172.464 153.900 C 172.172 153.185,171.783 152.240,171.600 151.800 C 170.895 150.106,170.690 148.862,170.449 144.800 L 170.200 140.600 165.893 140.486 C 162.656 140.401,161.545 140.500,161.425 140.886 M169.714 144.700 C 170.168 152.402,173.392 158.366,179.200 162.250 C 184.252 165.628,186.854 166.095,199.588 165.908 C 211.024 165.741,212.016 165.556,216.757 162.714 C 219.888 160.836,219.760 160.691,219.204 165.464 C 216.419 189.379,198.245 208.457,174.400 212.496 C 169.258 213.367,158.585 213.077,154.200 211.946 C 153.320 211.720,151.880 211.348,151.000 211.121 C 130.212 205.750,112.000 183.352,112.000 163.157 L 112.000 160.801 113.900 162.134 C 118.844 165.602,121.533 166.097,134.388 165.908 C 143.139 165.780,144.915 165.650,146.800 164.996 C 155.897 161.843,161.990 153.225,161.998 143.500 L 162.000 140.800 165.742 140.800 L 169.484 140.800 169.714 144.700 M261.302 166.169 C 260.852 166.687,260.370 167.626,260.231 168.255 C 259.930 169.623,256.756 173.200,255.843 173.200 C 255.490 173.200,255.200 173.380,255.200 173.600 C 255.200 173.820,254.737 174.000,254.171 174.000 C 253.117 174.000,252.000 174.808,252.000 175.571 C 252.000 175.807,252.360 176.000,252.800 176.000 C 253.240 176.000,253.600 176.180,253.600 176.400 C 253.600 176.620,253.960 176.800,254.400 176.800 C 254.840 176.800,255.200 176.980,255.200 177.200 C 255.200 177.420,255.475 177.600,255.811 177.600 C 256.816 177.600,259.886 180.969,260.205 182.423 C 260.818 185.216,263.600 185.592,263.600 182.882 C 263.600 182.062,267.626 177.600,268.365 177.600 C 268.604 177.600,268.800 177.420,268.800 177.200 C 268.800 176.980,269.250 176.800,269.800 176.800 C 270.350 176.800,270.800 176.620,270.800 176.400 C 270.800 176.180,271.160 176.000,271.600 176.000 C 272.044 176.000,272.400 175.733,272.400 175.400 C 272.400 175.070,272.130 174.800,271.800 174.800 C 271.470 174.800,271.200 174.620,271.200 174.400 C 271.200 174.180,270.750 174.000,270.200 174.000 C 269.650 174.000,269.200 173.820,269.200 173.600 C 269.200 173.380,268.925 173.200,268.589 173.200 C 267.404 173.200,263.600 168.782,263.600 167.405 C 263.600 167.072,263.420 166.800,263.200 166.800 C 262.980 166.800,262.800 166.541,262.800 166.224 C 262.800 165.219,262.148 165.195,261.302 166.169 M149.200 170.843 C 142.941 173.299,149.003 181.487,159.400 184.620 C 170.284 187.899,187.573 180.975,186.240 173.871 C 185.525 170.061,181.782 169.459,178.337 172.600 C 176.262 174.492,175.580 174.930,173.200 175.901 C 167.039 178.414,159.574 177.122,154.749 172.707 C 152.282 170.450,151.162 170.073,149.200 170.843 M154.253 173.007 C 161.008 179.274,171.825 179.316,178.632 173.100 C 182.379 169.678,185.887 170.870,185.646 175.483 C 185.478 178.703,176.950 183.692,169.739 184.789 C 158.579 186.488,143.070 177.439,148.255 172.255 C 149.965 170.545,151.855 170.782,154.253 173.007 M84.700 190.957 C 84.315 191.249,84.000 191.639,84.000 191.824 C 84.000 192.009,84.216 191.944,84.480 191.680 C 84.744 191.416,85.295 191.200,85.704 191.200 C 86.113 191.200,86.336 191.020,86.200 190.800 C 85.877 190.277,85.551 190.311,84.700 190.957 M188.000 216.763 C 186.949 217.354,182.695 218.700,179.800 219.357 C 169.739 221.642,157.963 221.324,148.400 218.510 C 146.530 217.959,144.685 217.418,144.300 217.308 C 143.710 217.138,143.599 217.382,143.592 218.853 C 143.574 222.898,142.051 228.829,140.200 232.068 C 139.655 233.021,139.207 233.998,139.205 234.241 C 139.199 234.738,139.108 234.638,149.014 245.000 C 158.769 255.204,160.530 257.237,161.000 258.838 C 161.380 260.131,161.520 260.217,163.776 260.529 C 167.583 261.057,168.000 260.693,168.000 256.842 C 168.000 248.892,173.417 244.064,182.390 244.014 L 184.980 244.000 189.489 239.300 C 194.530 234.046,194.270 234.505,193.238 232.667 C 190.878 228.466,190.015 225.855,189.965 222.772 C 189.882 217.647,189.346 216.007,188.000 216.763 M189.269 221.488 C 189.588 226.254,190.799 230.240,192.829 233.202 L 193.515 234.204 189.058 238.911 L 184.600 243.618 180.924 243.609 C 178.894 243.604,177.136 243.779,177.000 244.000 C 176.864 244.220,176.401 244.400,175.970 244.400 C 171.992 244.400,167.200 251.397,167.200 257.204 L 167.200 260.000 164.700 259.993 L 162.200 259.986 161.296 258.093 C 160.220 255.838,160.877 256.562,141.700 236.505 C 139.689 234.401,139.677 234.302,141.114 231.541 C 142.884 228.138,144.000 223.833,144.000 220.407 C 144.000 218.217,144.087 217.931,144.700 218.106 C 160.327 222.548,169.346 222.712,184.200 218.822 C 184.860 218.649,186.030 218.229,186.800 217.888 C 188.877 216.970,188.977 217.116,189.269 221.488 M84.000 219.167 C 84.000 219.703,85.112 220.762,85.700 220.787 C 85.865 220.794,86.000 220.609,86.000 220.376 C 86.000 220.143,85.832 220.056,85.627 220.183 C 85.422 220.310,84.972 220.010,84.627 219.518 C 84.270 219.007,84.000 218.856,84.000 219.167 M48.200 232.800 C 48.064 233.020,47.630 233.200,47.236 233.200 C 46.250 233.200,44.000 235.428,44.000 236.403 C 44.000 236.842,43.845 237.200,43.655 237.200 C 43.304 237.200,43.350 238.333,43.801 240.741 C 44.050 242.072,45.739 243.963,46.700 243.987 C 46.975 243.994,47.200 244.180,47.200 244.400 C 47.200 244.622,48.267 244.800,49.600 244.800 C 50.933 244.800,52.000 244.622,52.000 244.400 C 52.000 244.180,52.278 244.000,52.618 244.000 C 53.407 244.000,55.200 242.223,55.200 241.442 C 55.200 241.115,55.380 240.736,55.600 240.600 C 55.820 240.464,56.000 239.643,56.000 238.776 C 56.000 237.909,55.820 237.200,55.600 237.200 C 55.380 237.200,55.194 236.795,55.187 236.300 C 55.171 235.145,54.504 234.339,53.000 233.653 C 52.340 233.353,51.487 232.948,51.105 232.753 C 50.172 232.278,48.506 232.305,48.200 232.800 M128.167 237.658 C 125.843 239.803,122.896 242.501,120.411 244.757 C 118.918 246.111,118.712 246.466,119.169 246.891 C 119.471 247.171,119.613 247.211,119.485 246.981 C 119.162 246.398,119.244 246.309,124.395 241.600 C 126.923 239.290,129.231 237.175,129.524 236.900 C 129.817 236.625,130.098 236.400,130.148 236.400 C 130.198 236.400,132.975 239.277,136.319 242.793 C 139.664 246.310,142.394 249.055,142.386 248.893 C 142.378 248.732,139.618 245.729,136.253 242.221 L 130.135 235.842 128.167 237.658 M199.225 239.686 C 197.368 241.619,195.953 243.200,196.080 243.200 C 196.207 243.200,197.712 241.760,199.425 240.000 C 202.976 236.351,202.921 236.371,204.800 238.069 C 207.826 240.803,208.537 241.290,206.334 239.119 C 202.834 235.670,203.103 235.648,199.225 239.686 M209.200 241.842 C 209.200 242.052,209.568 242.488,210.018 242.812 C 210.752 243.340,210.070 243.422,203.318 243.613 L 195.800 243.827 203.276 243.913 C 211.167 244.005,211.767 243.872,210.188 242.388 C 209.644 241.878,209.200 241.632,209.200 241.842 M120.271 248.513 C 122.758 251.629,130.866 261.200,131.018 261.200 C 131.197 261.200,124.929 253.386,123.478 251.800 C 123.076 251.360,122.174 250.241,121.473 249.312 C 120.773 248.384,120.052 247.619,119.871 247.612 C 119.690 247.606,119.870 248.011,120.271 248.513 M143.620 250.328 C 143.632 250.477,145.909 252.940,148.681 255.800 C 151.453 258.660,153.223 260.370,152.614 259.600 C 151.194 257.804,143.593 249.968,143.620 250.328 M111.439 250.790 C 111.900 250.976,113.846 253.035,115.761 255.365 C 117.677 257.694,119.347 259.600,119.472 259.600 C 119.731 259.600,119.377 259.130,116.618 255.800 C 113.393 251.907,111.877 250.398,111.219 250.425 C 110.811 250.442,110.886 250.566,111.439 250.790 M108.200 251.200 L 107.400 251.544 108.200 251.544 C 108.640 251.544,109.360 251.389,109.800 251.200 L 110.600 250.856 109.800 250.856 C 109.360 250.856,108.640 251.011,108.200 251.200 M105.000 252.000 L 104.200 252.344 105.000 252.344 C 105.440 252.344,106.160 252.189,106.600 252.000 L 107.400 251.656 106.600 251.656 C 106.160 251.656,105.440 251.811,105.000 252.000 M177.078 252.410 C 174.649 254.320,174.800 250.328,174.800 312.800 C 174.800 372.921,174.764 371.589,176.425 372.616 C 176.949 372.939,176.907 372.779,176.000 371.000 C 174.961 368.962,174.716 257.518,175.745 255.087 C 176.410 253.515,177.540 252.466,179.057 252.011 L 180.200 251.669 179.154 251.634 C 178.579 251.615,177.645 251.964,177.078 252.410 M336.667 252.039 C 337.364 252.241,338.399 252.958,338.967 253.634 L 340.000 254.861 340.000 312.654 C 340.000 351.081,340.134 370.364,340.400 370.200 C 341.120 369.755,340.934 256.418,340.210 254.686 C 339.476 252.928,337.822 251.589,336.446 251.636 C 335.456 251.670,335.468 251.692,336.667 252.039 M101.800 252.800 L 101.000 253.144 101.800 253.144 C 102.240 253.144,102.960 252.989,103.400 252.800 L 104.200 252.456 103.400 252.456 C 102.960 252.456,102.240 252.611,101.800 252.800 M98.600 253.600 L 97.800 253.944 98.600 253.944 C 99.040 253.944,99.760 253.789,100.200 253.600 L 101.000 253.256 100.200 253.256 C 99.760 253.256,99.040 253.411,98.600 253.600 M95.400 254.400 L 94.600 254.744 95.400 254.766 C 95.840 254.778,96.470 254.613,96.800 254.400 C 97.595 253.886,96.596 253.886,95.400 254.400 M92.200 255.200 C 91.467 255.515,91.484 255.546,92.400 255.566 C 92.950 255.578,93.670 255.413,94.000 255.200 C 94.787 254.691,93.384 254.691,92.200 255.200 M89.200 256.000 L 88.200 256.320 89.200 256.354 C 89.750 256.373,90.470 256.213,90.800 256.000 C 91.564 255.506,90.742 255.506,89.200 256.000 M86.000 256.800 L 85.000 257.120 86.000 257.154 C 86.550 257.173,87.270 257.013,87.600 256.800 C 88.364 256.306,87.542 256.306,86.000 256.800 M82.800 257.600 L 81.800 257.920 82.800 257.954 C 83.350 257.973,84.070 257.813,84.400 257.600 C 85.164 257.106,84.342 257.106,82.800 257.600 M79.600 258.400 L 78.600 258.720 79.600 258.754 C 80.150 258.773,80.870 258.613,81.200 258.400 C 81.964 257.906,81.142 257.906,79.600 258.400 M74.600 259.629 C 73.060 260.058,71.260 260.515,70.600 260.645 C 67.393 261.277,61.600 263.841,61.600 264.629 C 61.600 264.872,62.112 264.604,63.600 263.582 C 65.059 262.581,71.004 260.754,76.516 259.615 C 78.054 259.297,79.002 258.780,77.967 258.824 C 77.655 258.837,76.140 259.199,74.600 259.629 M120.238 260.900 C 120.657 261.395,121.092 261.890,121.205 262.000 C 121.319 262.110,122.219 263.190,123.205 264.400 C 124.192 265.610,125.316 266.950,125.703 267.379 C 126.090 267.807,127.350 269.375,128.503 270.863 C 129.656 272.351,130.745 273.576,130.923 273.584 C 131.178 273.597,125.541 266.448,123.805 264.559 C 123.582 264.316,122.680 263.198,121.800 262.075 C 120.920 260.951,120.037 260.025,119.838 260.016 C 119.639 260.007,119.819 260.405,120.238 260.900 M134.415 265.529 C 136.277 267.800,138.497 270.545,139.350 271.629 C 141.344 274.166,141.483 274.141,144.718 270.700 C 150.490 264.558,151.707 263.200,151.438 263.200 C 151.284 263.200,150.223 264.226,149.080 265.480 C 144.070 270.971,141.861 273.198,141.446 273.176 C 141.201 273.163,139.020 270.721,136.600 267.749 C 134.180 264.778,131.937 262.133,131.615 261.873 C 131.293 261.613,132.553 263.258,134.415 265.529 M59.015 266.868 C 57.992 268.006,56.975 269.311,56.756 269.768 C 56.369 270.572,56.376 270.575,56.969 269.836 C 57.681 268.949,59.364 266.993,60.529 265.700 C 60.975 265.205,61.235 264.800,61.107 264.800 C 60.979 264.800,60.037 265.731,59.015 266.868 M156.660 268.905 C 155.967 269.622,153.281 272.484,150.692 275.263 C 145.246 281.108,144.137 281.796,140.662 281.481 C 139.151 281.344,138.467 281.398,138.827 281.625 C 142.002 283.634,145.508 281.599,153.062 273.359 C 153.688 272.676,154.989 271.260,155.953 270.210 C 156.918 269.161,158.178 268.160,158.753 267.986 C 159.766 267.679,159.769 267.668,158.860 267.634 C 158.292 267.614,157.422 268.116,156.660 268.905 M163.800 268.364 L 167.000 268.600 167.102 310.688 L 167.204 352.776 162.201 352.907 L 157.199 353.037 162.299 353.019 L 167.400 353.000 167.400 310.600 L 167.400 268.200 164.000 268.164 L 160.600 268.129 163.800 268.364 M55.000 273.200 C 54.850 273.673,54.817 274.150,54.927 274.260 C 55.037 274.370,55.250 274.073,55.400 273.600 C 55.550 273.127,55.583 272.650,55.473 272.540 C 55.363 272.430,55.150 272.727,55.000 273.200 M251.200 274.000 L 249.800 274.295 251.400 274.312 C 252.280 274.322,253.900 274.190,255.000 274.018 L 257.000 273.707 254.800 273.706 C 253.590 273.706,251.970 273.838,251.200 274.000 M260.200 274.018 C 261.300 274.190,263.010 274.323,264.000 274.315 L 265.800 274.300 264.000 273.980 C 263.010 273.803,261.300 273.670,260.200 273.683 L 258.200 273.707 260.200 274.018 M132.824 276.107 C 133.801 277.344,134.752 278.365,134.937 278.378 C 135.308 278.402,132.193 274.566,131.488 274.131 C 131.246 273.981,131.847 274.870,132.824 276.107 M247.800 274.676 C 238.507 276.807,227.978 284.643,223.044 293.100 C 222.348 294.295,223.190 293.455,224.162 291.985 C 228.233 285.834,233.758 281.115,240.800 277.774 C 242.010 277.200,243.313 276.566,243.695 276.365 C 244.077 276.164,244.741 276.000,245.171 276.000 C 245.601 276.000,246.064 275.820,246.200 275.600 C 246.336 275.380,246.932 275.197,247.524 275.194 C 248.116 275.191,248.870 275.013,249.200 274.800 C 249.878 274.362,249.368 274.317,247.800 274.676 M266.400 274.770 C 266.730 275.000,267.484 275.191,268.076 275.194 C 268.668 275.197,269.264 275.380,269.400 275.600 C 269.536 275.820,269.999 276.000,270.429 276.000 C 270.859 276.000,271.523 276.159,271.905 276.354 C 272.287 276.549,274.190 277.494,276.134 278.454 C 281.583 281.146,286.396 285.320,290.591 290.990 C 292.628 293.745,295.200 298.654,295.200 299.788 C 295.200 300.099,295.399 300.476,295.643 300.626 C 296.698 301.278,294.277 295.787,291.869 292.064 C 287.160 284.785,279.042 278.411,271.000 275.680 C 267.986 274.656,265.544 274.173,266.400 274.770 M54.289 275.600 C 54.136 276.150,54.025 277.050,54.042 277.600 C 54.068 278.461,54.126 278.414,54.458 277.260 C 54.670 276.524,54.781 275.624,54.706 275.260 C 54.608 274.794,54.486 274.893,54.289 275.600 M135.796 279.544 C 136.233 280.056,136.953 280.660,137.396 280.886 L 138.200 281.299 137.395 280.549 C 135.749 279.017,134.876 278.469,135.796 279.544 M252.000 281.621 C 251.352 281.842,251.845 281.880,253.400 281.731 C 254.720 281.604,255.875 281.432,255.967 281.350 C 256.290 281.059,252.986 281.284,252.000 281.621 M259.233 281.347 C 259.325 281.428,260.570 281.597,262.000 281.723 C 263.630 281.866,264.227 281.826,263.600 281.616 C 262.620 281.286,258.905 281.058,259.233 281.347 M53.443 286.721 C 53.259 289.647,53.201 292.134,53.314 292.247 C 53.593 292.527,54.110 284.548,53.926 282.800 C 53.845 282.030,53.628 283.794,53.443 286.721 M248.600 282.400 C 248.096 282.617,248.022 282.744,248.400 282.744 C 248.730 282.744,249.360 282.589,249.800 282.400 C 250.304 282.183,250.378 282.056,250.000 282.056 C 249.670 282.056,249.040 282.211,248.600 282.400 M239.455 286.731 C 237.083 288.290,232.257 292.802,231.532 294.137 C 231.312 294.542,232.415 293.523,233.983 291.873 C 235.550 290.223,237.995 288.115,239.416 287.189 C 241.664 285.725,242.317 285.200,241.891 285.200 C 241.832 285.200,240.735 285.889,239.455 286.731 M273.800 285.481 C 274.020 285.690,275.398 286.699,276.862 287.724 C 278.326 288.748,280.649 290.804,282.024 292.293 C 283.399 293.782,283.947 294.243,283.242 293.317 C 281.497 291.026,277.233 287.207,275.128 286.050 C 274.177 285.528,273.580 285.272,273.800 285.481 M221.671 295.461 C 220.440 297.876,218.799 302.074,218.814 302.769 C 218.821 303.116,219.356 302.050,220.002 300.400 C 220.648 298.750,221.547 296.700,221.999 295.843 C 222.450 294.987,222.738 294.205,222.638 294.105 C 222.538 294.004,222.103 294.615,221.671 295.461 M52.641 300.062 C 52.458 302.846,52.394 305.366,52.499 305.662 C 52.756 306.390,53.312 298.160,53.124 296.400 C 53.042 295.630,52.824 297.278,52.641 300.062 M230.069 296.039 C 229.310 297.254,229.766 297.416,230.555 296.212 C 230.920 295.656,231.078 295.200,230.905 295.200 C 230.733 295.200,230.357 295.578,230.069 296.039 M228.736 298.500 C 227.711 300.161,227.064 301.597,227.255 301.788 C 227.359 301.892,227.927 300.993,228.518 299.789 C 229.617 297.547,229.728 296.893,228.736 298.500 M286.600 298.800 C 286.941 299.460,287.311 300.000,287.421 300.000 C 287.531 300.000,287.341 299.460,287.000 298.800 C 286.659 298.140,286.289 297.600,286.179 297.600 C 286.069 297.600,286.259 298.140,286.600 298.800 M239.183 301.900 L 237.400 303.800 239.393 302.000 C 240.488 301.010,241.463 300.155,241.559 300.100 C 241.655 300.045,241.561 300.000,241.350 300.000 C 241.139 300.000,240.164 300.855,239.183 301.900 M244.300 300.488 C 244.795 300.727,245.200 301.075,245.200 301.261 C 245.200 301.448,245.425 301.594,245.700 301.587 C 245.975 301.579,245.775 301.219,245.256 300.787 C 244.736 300.354,244.106 300.012,243.856 300.027 C 243.605 300.042,243.805 300.249,244.300 300.488 M259.292 301.100 C 258.354 302.454,257.859 303.734,258.405 303.397 C 258.622 303.263,258.800 302.918,258.800 302.631 C 258.800 302.344,259.275 301.635,259.855 301.055 C 260.435 300.475,260.717 300.000,260.482 300.000 C 260.247 300.000,259.712 300.495,259.292 301.100 M264.793 300.972 C 265.532 301.774,265.774 302.462,265.743 303.667 C 265.715 304.710,265.822 305.092,266.044 304.742 C 266.822 303.514,266.121 301.309,264.672 300.426 C 263.886 299.947,263.898 300.001,264.793 300.972 M270.162 300.862 L 269.400 301.724 270.600 300.983 C 272.234 299.974,272.209 300.000,271.529 300.000 C 271.196 300.000,270.581 300.388,270.162 300.862 M275.704 301.700 C 276.649 302.635,278.166 304.255,279.075 305.300 C 279.983 306.345,280.853 307.200,281.007 307.200 C 281.161 307.200,279.808 305.580,278.000 303.600 C 276.192 301.620,274.550 300.000,274.350 300.000 C 274.150 300.000,274.759 300.765,275.704 301.700 M296.152 302.000 C 296.706 304.764,297.299 306.835,297.483 306.650 C 297.742 306.391,296.828 302.411,296.324 301.600 C 296.052 301.163,296.006 301.271,296.152 302.000 M83.160 303.242 C 82.522 303.926,82.001 304.781,82.002 305.142 C 82.004 305.533,82.251 305.328,82.611 304.638 C 83.916 302.135,86.675 301.584,88.543 303.452 L 89.595 304.504 89.700 333.352 L 89.805 362.200 89.903 333.342 L 90.000 304.485 88.840 303.242 C 87.898 302.234,87.363 302.000,86.000 302.000 C 84.637 302.000,84.102 302.234,83.160 303.242 M246.092 303.800 C 246.097 305.493,246.154 305.641,246.461 304.766 C 246.678 304.144,246.676 303.346,246.455 302.766 C 246.151 301.970,246.087 302.152,246.092 303.800 M269.067 302.267 C 268.711 302.622,268.737 304.482,269.106 305.062 C 269.268 305.316,269.400 304.731,269.400 303.762 C 269.400 302.793,269.385 302.000,269.367 302.000 C 269.348 302.000,269.213 302.120,269.067 302.267 M218.400 303.698 C 218.400 303.825,218.130 305.340,217.800 307.065 C 217.097 310.741,217.015 317.438,217.637 320.469 C 217.877 321.641,218.156 323.026,218.256 323.547 C 218.357 324.068,218.525 324.409,218.629 324.304 C 218.734 324.199,218.524 322.423,218.163 320.357 C 217.450 316.278,217.561 309.980,218.414 306.072 C 218.669 304.902,218.771 303.837,218.639 303.706 C 218.508 303.574,218.400 303.571,218.400 303.698 M235.654 305.634 C 234.913 306.495,234.463 307.185,234.654 307.166 C 234.844 307.148,235.606 306.428,236.346 305.566 C 237.087 304.705,237.537 304.015,237.346 304.034 C 237.156 304.052,236.394 304.772,235.654 305.634 M225.849 305.415 C 225.712 305.773,225.618 306.456,225.641 306.933 C 225.667 307.481,225.803 307.286,226.010 306.403 C 226.360 304.916,226.265 304.333,225.849 305.415 M289.444 306.200 C 289.773 307.671,290.002 307.990,289.994 306.967 C 289.991 306.545,289.805 305.930,289.582 305.600 C 289.285 305.162,289.248 305.324,289.444 306.200 M244.998 306.572 C 244.779 306.886,243.430 308.452,242.000 310.050 C 240.570 311.649,239.604 312.834,239.852 312.684 C 240.627 312.218,246.104 306.000,245.740 306.000 C 245.551 306.000,245.217 306.257,244.998 306.572 M270.818 307.374 C 272.960 309.954,275.200 312.370,275.192 312.091 C 275.187 311.931,273.972 310.528,272.492 308.974 C 271.011 307.419,270.258 306.699,270.818 307.374 M231.843 310.023 C 229.851 312.175,229.601 312.633,229.613 314.123 C 229.625 315.682,230.520 317.614,231.006 317.128 C 231.123 317.010,230.945 316.686,230.610 316.408 C 229.163 315.208,229.820 312.640,232.243 310.023 C 233.477 308.690,234.396 307.600,234.286 307.600 C 234.176 307.600,233.077 308.690,231.843 310.023 M263.823 309.006 C 262.960 311.072,263.074 311.306,264.047 309.462 C 264.493 308.616,264.765 307.832,264.652 307.719 C 264.539 307.606,264.166 308.185,263.823 309.006 M282.200 308.800 C 282.860 309.563,283.496 310.280,283.614 310.394 C 286.853 313.520,286.506 314.758,280.446 321.682 C 278.044 324.427,279.732 322.783,283.405 318.800 C 287.049 314.848,286.676 312.115,281.958 308.206 C 281.247 307.618,281.310 307.771,282.200 308.800 M297.761 314.200 C 297.760 318.330,297.876 320.372,298.057 319.400 C 298.421 317.439,298.406 310.244,298.034 308.600 C 297.884 307.940,297.762 310.460,297.761 314.200 M225.052 308.900 C 224.727 310.115,224.787 318.426,225.128 319.285 C 225.278 319.662,225.400 317.277,225.400 313.985 C 225.400 310.693,225.376 308.000,225.347 308.000 C 225.317 308.000,225.185 308.405,225.052 308.900 M51.832 314.061 C 51.653 317.065,51.593 319.765,51.698 320.061 C 51.947 320.766,52.533 310.903,52.320 309.600 C 52.229 309.050,52.010 311.058,51.832 314.061 M290.200 314.200 C 290.200 317.154,290.322 319.262,290.472 318.885 C 290.621 318.508,290.744 316.400,290.744 314.200 C 290.744 312.000,290.621 309.892,290.472 309.515 C 290.322 309.138,290.200 311.246,290.200 314.200 M275.600 312.748 C 275.600 312.971,275.780 313.264,276.000 313.400 C 276.735 313.854,276.413 314.598,274.569 316.707 C 273.562 317.858,272.932 318.800,273.169 318.800 C 273.406 318.800,273.601 318.665,273.603 318.500 C 273.604 318.335,274.316 317.480,275.183 316.600 C 276.878 314.881,277.152 313.895,276.200 312.943 C 275.870 312.613,275.600 312.525,275.600 312.748 M238.800 314.059 C 238.800 314.531,239.610 315.783,240.600 316.841 C 241.590 317.900,242.400 318.659,242.400 318.528 C 242.400 318.397,241.663 317.490,240.762 316.512 C 239.655 315.312,239.189 314.486,239.324 313.968 C 239.435 313.545,239.362 313.200,239.163 313.200 C 238.963 313.200,238.800 313.586,238.800 314.059 M259.800 318.261 C 259.464 319.065,259.282 319.815,259.395 319.928 C 259.508 320.041,259.600 320.035,259.600 319.916 C 259.600 319.796,259.872 319.046,260.205 318.249 C 260.538 317.452,260.721 316.800,260.611 316.800 C 260.501 316.800,260.136 317.458,259.800 318.261 M232.621 319.200 C 235.082 322.134,237.263 324.470,237.407 324.327 C 237.480 324.253,236.094 322.664,234.326 320.796 C 232.558 318.928,231.791 318.210,232.621 319.200 M250.623 320.206 C 249.760 322.272,249.874 322.506,250.847 320.662 C 251.293 319.816,251.565 319.032,251.452 318.919 C 251.339 318.806,250.966 319.385,250.623 320.206 M271.128 320.700 C 268.948 322.981,268.062 325.497,269.194 326.196 C 269.437 326.346,269.498 325.990,269.354 325.269 C 269.071 323.855,269.625 322.691,271.528 320.700 C 272.317 319.875,272.872 319.200,272.762 319.200 C 272.652 319.200,271.917 319.875,271.128 320.700 M244.780 321.476 C 245.819 322.800,246.090 323.514,246.073 324.876 C 246.055 326.287,246.128 326.464,246.474 325.849 C 247.099 324.738,246.266 322.397,244.742 320.983 L 243.466 319.800 244.780 321.476 M258.364 321.494 C 257.988 322.484,256.901 324.947,256.509 325.700 C 256.423 325.865,256.449 326.000,256.566 326.000 C 256.684 326.000,257.149 325.191,257.599 324.201 C 258.750 321.675,259.213 320.400,258.980 320.400 C 258.870 320.400,258.593 320.892,258.364 321.494 M289.649 320.800 C 289.616 321.130,289.489 321.850,289.367 322.400 C 289.175 323.264,289.207 323.303,289.599 322.688 C 289.848 322.297,289.975 321.577,289.881 321.088 C 289.786 320.600,289.682 320.470,289.649 320.800 M225.600 321.710 C 225.600 322.283,225.787 322.868,226.016 323.010 C 226.289 323.179,226.338 322.877,226.160 322.134 C 225.792 320.601,225.600 320.456,225.600 321.710 M297.088 322.133 C 296.930 322.536,296.811 323.256,296.825 323.733 C 296.849 324.556,296.871 324.550,297.240 323.625 C 297.454 323.089,297.573 322.369,297.503 322.025 C 297.399 321.511,297.325 321.530,297.088 322.133 M249.443 323.033 C 249.105 323.913,249.139 325.515,249.500 325.738 C 249.665 325.840,249.800 325.131,249.800 324.162 C 249.800 322.191,249.785 322.142,249.443 323.033 M51.014 327.600 C 50.851 330.130,50.791 332.650,50.881 333.200 C 50.971 333.750,51.190 331.922,51.368 329.138 C 51.546 326.354,51.606 323.834,51.502 323.538 C 51.397 323.242,51.178 325.070,51.014 327.600 M226.428 324.276 C 226.413 324.758,226.580 325.264,226.800 325.400 C 227.273 325.692,227.273 325.301,226.800 324.200 C 226.469 323.429,226.455 323.431,226.428 324.276 M218.848 325.400 C 218.860 326.240,220.319 329.693,220.370 329.000 C 220.386 328.780,220.048 327.700,219.618 326.600 C 219.189 325.500,218.842 324.960,218.848 325.400 M239.000 326.400 C 239.859 327.280,240.637 328.000,240.728 328.000 C 241.065 328.000,238.186 324.866,237.819 324.834 C 237.609 324.815,238.141 325.520,239.000 326.400 M276.018 326.534 L 274.637 328.200 276.318 326.619 C 277.243 325.749,278.000 324.984,278.000 324.919 C 278.000 324.459,277.194 325.116,276.018 326.534 M295.834 326.884 C 295.218 328.833,292.893 333.934,292.408 334.400 C 292.294 334.510,291.930 335.077,291.600 335.660 C 289.143 339.999,283.302 345.667,278.282 348.583 C 277.227 349.196,276.442 349.776,276.538 349.872 C 277.177 350.510,285.280 344.333,288.105 341.054 C 292.286 336.200,297.730 325.996,296.692 324.959 C 296.588 324.854,296.201 325.721,295.834 326.884 M245.024 327.413 C 244.596 327.736,243.516 328.011,242.624 328.025 C 241.218 328.047,241.124 328.101,241.923 328.421 C 242.898 328.812,245.249 328.092,245.775 327.241 C 246.132 326.662,245.965 326.701,245.024 327.413 M271.900 328.412 C 272.437 328.628,273.163 328.628,273.700 328.412 C 274.435 328.117,274.270 328.051,272.800 328.051 C 271.330 328.051,271.165 328.117,271.900 328.412 M220.407 329.739 C 220.387 330.666,223.886 336.583,226.140 339.433 C 229.562 343.762,238.224 350.709,239.103 349.831 C 239.247 349.686,238.968 349.464,238.483 349.337 C 237.997 349.211,237.600 348.948,237.600 348.753 C 237.600 348.559,237.375 348.398,237.100 348.396 C 234.868 348.377,222.800 336.131,222.800 333.886 C 222.800 333.553,220.414 329.418,220.407 329.739 M284.878 332.126 C 283.979 333.516,282.019 335.898,280.522 337.420 C 278.043 339.941,277.963 340.135,280.121 338.400 C 281.856 337.005,287.364 329.600,286.666 329.600 C 286.581 329.600,285.776 330.737,284.878 332.126 M231.234 333.700 C 233.634 337.210,243.200 344.946,243.200 343.378 C 243.200 343.269,242.784 343.022,242.276 342.829 C 240.364 342.102,234.776 337.484,232.792 334.990 C 230.603 332.238,229.755 331.536,231.234 333.700 M50.744 337.305 C 50.912 337.472,58.058 337.562,66.625 337.505 L 82.200 337.400 66.320 337.200 C 57.586 337.090,50.577 337.137,50.744 337.305 M276.456 340.834 C 275.936 341.255,275.666 341.594,275.856 341.587 C 276.344 341.569,277.776 340.443,277.571 340.239 C 277.477 340.145,276.975 340.413,276.456 340.834 M273.897 342.366 C 272.153 343.484,272.069 343.739,273.700 342.964 C 274.525 342.572,275.200 342.105,275.200 341.926 C 275.200 341.521,275.230 341.511,273.897 342.366 M244.410 344.140 C 245.834 344.973,250.264 346.310,252.400 346.552 L 254.200 346.755 252.400 346.343 C 250.870 345.992,247.170 344.857,244.200 343.827 C 243.714 343.658,243.796 343.781,244.410 344.140 M269.400 344.470 C 265.959 345.856,265.677 346.004,267.000 345.729 C 268.290 345.460,272.464 343.666,271.800 343.665 C 271.580 343.665,270.500 344.027,269.400 344.470 M50.064 346.695 C 50.127 348.172,50.131 348.176,50.289 346.900 L 50.451 345.600 66.225 345.600 L 82.000 345.600 82.000 355.608 C 82.000 371.791,79.083 370.400,113.019 370.400 C 131.601 370.400,139.763 370.266,140.772 369.945 C 144.596 368.725,146.372 367.767,149.681 365.136 C 153.586 362.031,156.288 361.200,162.481 361.200 L 167.140 361.200 167.283 366.700 C 167.362 369.725,167.511 372.467,167.614 372.793 C 167.763 373.268,167.177 373.438,164.658 373.648 C 156.016 374.369,152.379 382.349,156.885 390.700 L 157.586 392.000 103.455 392.000 C 49.553 392.000,49.321 391.997,48.589 391.187 C 47.807 390.324,47.848 389.099,49.608 360.600 C 50.023 353.878,50.108 348.158,49.789 348.478 C 49.673 348.594,49.390 352.269,49.160 356.644 C 48.930 361.020,48.581 367.300,48.384 370.600 C 47.474 385.819,47.432 390.751,48.204 391.605 C 48.992 392.475,157.242 392.903,157.777 392.038 C 157.900 391.839,157.664 390.984,157.252 390.138 C 153.155 381.713,156.392 374.968,164.794 374.421 L 168.188 374.200 168.055 367.800 C 167.981 364.280,167.839 361.265,167.737 361.100 C 167.438 360.613,156.561 360.750,155.319 361.256 C 152.293 362.490,151.550 362.921,149.168 364.829 C 142.646 370.049,143.075 369.988,112.600 369.988 L 87.400 369.987 85.822 369.093 C 82.791 367.376,82.626 366.719,82.400 355.400 L 82.200 345.400 66.100 345.295 L 50.000 345.191 50.064 346.695 M262.200 346.400 C 260.537 346.823,262.174 346.842,264.200 346.423 C 265.545 346.145,265.609 346.092,264.600 346.093 C 263.940 346.094,262.860 346.232,262.200 346.400 M255.900 347.093 C 256.835 347.177,258.365 347.177,259.300 347.093 C 260.235 347.009,259.470 346.940,257.600 346.940 C 255.730 346.940,254.965 347.009,255.900 347.093 M239.600 350.190 C 239.600 350.659,244.269 352.462,248.200 353.512 C 255.548 355.474,262.398 355.177,270.745 352.532 C 273.145 351.772,276.121 350.387,275.878 350.144 C 275.768 350.034,274.985 350.297,274.139 350.729 C 265.369 355.201,250.256 355.214,241.516 350.757 C 239.986 349.977,239.600 349.862,239.600 350.190 M154.000 353.600 L 153.000 353.920 154.000 353.920 C 154.550 353.920,155.450 353.776,156.000 353.600 L 157.000 353.280 156.000 353.280 C 155.450 353.280,154.550 353.424,154.000 353.600 M149.354 355.388 C 147.839 356.151,146.060 357.249,145.400 357.829 C 144.740 358.408,143.660 359.312,143.000 359.837 C 142.340 360.362,141.912 360.793,142.049 360.796 C 142.186 360.798,143.446 359.874,144.849 358.742 C 146.252 357.611,148.660 356.087,150.200 355.357 C 151.740 354.626,152.799 354.022,152.554 354.014 C 152.308 354.006,150.868 354.624,149.354 355.388 M137.800 362.000 L 137.000 362.344 137.800 362.344 C 138.240 362.344,138.960 362.189,139.400 362.000 L 140.200 361.656 139.400 361.656 C 138.960 361.656,138.240 361.811,137.800 362.000 M338.534 372.300 C 337.838 373.015,337.441 373.600,337.652 373.600 C 338.172 373.600,340.092 371.651,339.930 371.289 C 339.858 371.130,339.230 371.585,338.534 372.300 M179.800 374.000 C 180.460 374.168,215.560 374.305,257.800 374.305 C 300.040 374.305,335.140 374.168,335.800 374.000 C 336.460 373.832,301.360 373.695,257.800 373.695 C 214.240 373.695,179.140 373.832,179.800 374.000 M163.860 381.707 C 163.325 382.098,182.678 382.179,257.565 382.098 L 351.945 381.997 352.209 382.828 C 352.354 383.286,352.571 383.562,352.691 383.443 C 352.810 383.323,352.612 382.772,352.249 382.219 L 351.590 381.213 258.062 381.214 C 184.560 381.214,164.390 381.319,163.860 381.707 M351.881 385.635 C 351.489 387.555,349.237 390.107,347.010 391.153 L 345.197 392.005 257.237 391.903 C 208.859 391.846,169.360 391.935,169.462 392.100 C 169.754 392.573,345.907 392.473,346.200 392.000 C 346.336 391.780,346.735 391.600,347.086 391.600 C 348.904 391.600,352.612 387.002,352.316 385.114 C 352.203 384.389,352.113 384.496,351.881 385.635 M163.233 385.400 C 163.169 387.100,166.887 391.600,168.356 391.600 C 168.666 391.600,168.197 391.076,167.313 390.436 C 165.528 389.143,164.331 387.611,163.689 385.800 C 163.379 384.927,163.255 384.818,163.233 385.400 " stroke="none" fill="#5c5c63" fill-rule="evenodd"></path><path id="path4" d="M270.452 28.283 C 270.177 28.577,269.798 28.723,269.611 28.607 C 269.423 28.490,269.035 28.924,268.750 29.569 C 268.464 30.214,268.088 30.655,267.915 30.548 C 267.742 30.440,267.600 31.713,267.600 33.376 L 267.600 36.400 265.024 36.400 C 263.607 36.400,262.336 36.580,262.200 36.800 C 262.064 37.020,261.647 37.200,261.273 37.200 C 260.607 37.200,259.347 38.706,259.515 39.300 C 259.562 39.465,259.420 39.600,259.200 39.600 C 258.979 39.600,258.800 40.650,258.800 41.950 C 258.800 44.445,260.534 47.200,262.105 47.200 C 262.461 47.200,262.864 47.380,263.000 47.600 C 263.136 47.820,264.227 48.000,265.424 48.000 L 267.600 48.000 267.600 50.640 C 267.600 53.972,269.104 55.838,272.121 56.251 C 274.091 56.521,277.600 55.162,277.600 54.129 C 277.600 53.838,277.780 53.600,278.000 53.600 C 278.229 53.600,278.400 52.400,278.400 50.800 L 278.400 48.000 280.576 48.000 C 281.773 48.000,282.864 47.820,283.000 47.600 C 283.136 47.380,283.597 47.200,284.024 47.200 C 284.451 47.200,284.800 47.020,284.800 46.800 C 284.800 46.580,285.058 46.400,285.373 46.400 C 285.688 46.400,286.060 46.040,286.200 45.600 C 286.340 45.160,286.622 44.800,286.827 44.800 C 287.032 44.800,287.200 43.692,287.200 42.338 C 287.200 39.745,285.902 37.200,284.580 37.200 C 284.261 37.200,284.000 37.020,284.000 36.800 C 284.000 36.571,282.800 36.400,281.200 36.400 L 278.400 36.400 278.400 33.762 C 278.400 29.117,273.091 25.457,270.452 28.283 M252.778 282.208 C 240.902 284.214,230.360 293.044,227.241 303.600 C 226.948 304.590,226.564 305.760,226.386 306.200 C 225.198 309.144,225.247 321.088,226.450 321.831 C 226.643 321.950,226.800 322.489,226.800 323.029 C 226.800 323.569,226.961 324.323,227.158 324.705 C 227.355 325.087,228.185 326.817,229.004 328.549 C 230.466 331.642,233.619 335.782,236.341 338.183 C 239.375 340.859,239.818 341.199,240.267 341.200 C 240.523 341.200,240.793 341.335,240.867 341.500 C 241.083 341.987,246.048 344.400,246.833 344.400 C 247.229 344.400,247.664 344.580,247.800 344.800 C 247.936 345.020,248.541 345.200,249.144 345.200 C 249.747 345.200,250.455 345.415,250.718 345.678 C 251.044 346.004,253.129 346.162,257.298 346.178 C 263.154 346.199,264.059 346.077,268.200 344.711 C 270.150 344.068,274.538 341.861,275.375 341.103 C 275.802 340.716,276.317 340.400,276.520 340.400 C 278.799 340.400,286.867 329.495,288.357 324.400 C 288.646 323.410,289.034 322.210,289.218 321.733 C 290.387 318.705,289.876 307.359,288.410 303.800 C 288.229 303.360,287.848 302.370,287.563 301.600 C 282.746 288.578,267.009 279.805,252.778 282.208 M264.659 299.971 C 265.428 300.440,266.104 301.304,266.398 302.193 C 266.959 303.893,267.143 303.314,263.203 312.200 C 262.715 313.300,262.046 314.830,261.716 315.600 C 261.387 316.370,260.794 317.720,260.400 318.600 C 260.006 319.480,259.413 320.830,259.084 321.600 C 256.418 327.826,255.918 328.400,253.160 328.400 C 248.228 328.400,248.041 325.210,252.398 315.400 C 252.789 314.520,253.489 312.945,253.954 311.900 C 255.749 307.867,256.503 306.157,256.995 305.000 C 258.529 301.392,258.971 300.684,260.130 299.977 C 261.736 298.998,263.061 298.996,264.659 299.971 M245.580 300.582 C 247.226 302.071,247.573 304.725,246.299 306.072 C 246.025 306.362,244.812 307.770,243.605 309.200 C 242.397 310.630,241.137 312.070,240.804 312.400 C 238.908 314.279,238.689 313.753,243.693 319.323 C 247.407 323.458,247.776 324.450,246.423 326.670 C 243.700 331.135,241.218 329.788,231.622 318.636 C 229.001 315.591,228.583 313.283,230.305 311.367 C 230.687 310.941,232.578 308.768,234.506 306.538 C 240.713 299.358,242.917 298.172,245.580 300.582 M277.200 302.296 C 288.152 313.988,288.131 313.916,282.501 320.278 C 274.705 329.085,273.540 329.930,271.108 328.530 C 266.830 326.069,267.545 323.959,275.685 315.032 C 276.418 314.229,276.307 313.900,274.798 312.400 C 269.515 307.151,267.961 304.362,269.063 302.111 C 270.731 298.704,273.903 298.777,277.200 302.296 M167.721 382.298 C 169.877 382.371,173.297 382.370,175.321 382.298 C 177.344 382.225,175.580 382.166,171.400 382.167 C 167.220 382.167,165.564 382.226,167.721 382.298 M218.868 382.300 C 240.136 382.357,275.056 382.357,296.468 382.300 C 317.881 382.243,300.480 382.196,257.800 382.196 C 215.120 382.196,197.601 382.243,218.868 382.300 M340.300 382.298 C 342.335 382.371,345.665 382.371,347.700 382.298 C 349.735 382.225,348.070 382.166,344.000 382.166 C 339.930 382.166,338.265 382.225,340.300 382.298 " stroke="none" fill="#73d3fb" fill-rule="evenodd"></path></g></svg>