<?xml version="1.0" encoding="iso-8859-1"?>
<!-- Generator: Adobe Illustrator 19.0.0, SVG Export Plug-In . SVG Version: 6.00 Build 0)  -->
<svg version="1.1" id="Layer_1" xmlns="http://www.w3.org/2000/svg" xmlns:xlink="http://www.w3.org/1999/xlink" x="0px" y="0px"
	 viewBox="0 0 330 330" style="enable-background:new 0 0 330 330;" xml:space="preserve">
<g id="XMLID_512_">
	<g id="XMLID_515_">
		<path id="XMLID_516_" d="M285,0H45c-8.284,0-15,6.716-15,15v300c0,8.284,6.716,15,15,15h240c8.284,0,15-6.716,15-15V15
			C300,6.716,293.284,0,285,0z M270,300H60V30h210V300z"/>
	</g>
	<g id="XMLID_519_">
		<path id="XMLID_520_" d="M105,270h120c8.284,0,15-6.716,15-15V75c0-8.284-6.716-15-15-15H105c-8.284,0-15,6.716-15,15v180
			C90,263.284,96.716,270,105,270z M210,180h-90v-30h90V180z M120,240v-30h90v30H120z M210,90v30h-90V90H210z"/>
	</g>
</g>
<g>
</g>
<g>
</g>
<g>
</g>
<g>
</g>
<g>
</g>
<g>
</g>
<g>
</g>
<g>
</g>
<g>
</g>
<g>
</g>
<g>
</g>
<g>
</g>
<g>
</g>
<g>
</g>
<g>
</g>
</svg>
