<svg width="30" height="30" viewBox="0 0 30 30" fill="none" xmlns="http://www.w3.org/2000/svg">
<rect width="30" height="30" rx="6" fill="#1D2731"/>
<path d="M21.5833 9.75085H17.3333V12.3753H11.6667V9.75085H7.41667C7.06002 9.73272 6.71089 9.86053 6.44548 10.1064C6.18006 10.3522 6.01992 10.6961 6 11.0631V20.6861C6.01992 21.053 6.18006 21.3969 6.44548 21.6428C6.71089 21.8886 7.06002 22.0164 7.41667 21.9983H21.5833C21.94 22.0164 22.2891 21.8886 22.5545 21.6428C22.8199 21.3969 22.9801 21.053 23 20.6861V11.0631C22.9801 10.6961 22.8199 10.3522 22.5545 10.1064C22.2891 9.86053 21.94 9.73272 21.5833 9.75085ZM14.5 14.1249C14.9754 14.1011 15.4408 14.2716 15.7945 14.5993C16.1483 14.9271 16.3619 15.3855 16.3887 15.8746C16.3619 16.3637 16.1483 16.8221 15.7945 17.1498C15.4408 17.4776 14.9754 17.6481 14.5 17.6242C14.0246 17.6481 13.5592 17.4776 13.2055 17.1498C12.8517 16.8221 12.6381 16.3637 12.6113 15.8746C12.6381 15.3855 12.8517 14.9271 13.2055 14.5993C13.5592 14.2716 14.0246 14.1011 14.5 14.1249ZM17.2534 20.2487H11.7466C11.4394 20.2487 11.1918 19.9751 11.2864 19.7074C11.4304 19.3414 11.6797 19.0295 12.0009 18.8135C12.3221 18.5975 12.6998 18.4878 13.0833 18.499H13.3253C14.0828 18.7907 14.9172 18.7907 15.6747 18.499H15.9167C16.3002 18.488 16.6779 18.5978 16.9991 18.8138C17.3204 19.0297 17.5698 19.3415 17.7141 19.7074C17.8088 19.9751 17.5606 20.2487 17.2534 20.2487ZM16.3887 8.87603C16.3758 8.63134 16.2692 8.40187 16.0923 8.2379C15.9153 8.07393 15.6824 7.98882 15.4446 8.00122H13.5554C13.3175 7.98866 13.0844 8.0737 12.9074 8.23769C12.7303 8.40167 12.6236 8.63123 12.6107 8.87603V11.5005H16.3887V8.87603Z" fill="white"/>
</svg>
