<svg width="30" height="30" viewBox="0 0 30 30" fill="none" xmlns="http://www.w3.org/2000/svg">
<rect width="30" height="30" rx="6" fill="#1D2731"/>
<path d="M9.57739 14.1708V19.106H19.4202V14.1725C17.8899 13.4256 16.2058 13.0371 14.4988 13.0371C12.7918 13.0371 11.1077 13.4256 9.57739 14.1725V14.1708Z" fill="white"/>
<path d="M23.7267 13.1073L25 12.4215L14.4991 7L4 12.4221L8.347 14.6863V13.4182C10.2317 12.39 12.3455 11.8402 14.4986 11.8181C16.6529 11.8305 18.7691 12.381 20.6501 13.4182V14.6857L22.4957 13.7382V18.3528L21.2225 21.0461L23.1092 23L24.9959 21.0461L23.7227 18.3528L23.7267 13.1073Z" fill="white"/>
</svg>
