<svg width="30" height="30" viewBox="0 0 30 30" fill="none" xmlns="http://www.w3.org/2000/svg">
<rect width="30" height="30" rx="6" fill="#1D2731"/>
<path d="M13.875 7H7.625C7.27979 7 7 7.27978 7 7.625V13.875C7 14.2202 7.27979 14.5 7.625 14.5H13.875C14.2202 14.5 14.5 14.2202 14.5 13.875V7.625C14.5 7.27978 14.2202 7 13.875 7ZM13.25 13.25H8.25V8.25H13.25V13.25ZM22.6143 15.5476C22.3807 15.4508 22.1118 15.5043 21.9331 15.683L15.6831 21.933C15.5043 22.1118 15.4508 22.3806 15.5476 22.6141C15.6444 22.8477 15.8722 23 16.125 23H22.375C22.7202 23 23 22.7202 23 22.375V16.125C23 15.8722 22.8478 15.6443 22.6143 15.5476ZM21.75 21.75H17.6339L21.75 17.6339V21.75ZM19.25 14.5C21.3177 14.5 23 12.8177 23 10.75C23 8.68225 21.3177 7 19.25 7C17.1823 7 15.5 8.68225 15.5 10.75C15.5 12.8177 17.1823 14.5 19.25 14.5ZM19.25 8.25C20.6285 8.25 21.75 9.37146 21.75 10.75C21.75 12.1285 20.6285 13.25 19.25 13.25C17.8715 13.25 16.75 12.1285 16.75 10.75C16.75 9.37146 17.8715 8.25 19.25 8.25ZM14.3169 16.567L11.6339 19.25L14.3169 21.933C14.561 22.1771 14.561 22.5728 14.3169 22.8169C14.0729 23.0609 13.6771 23.061 13.4331 22.8169L10.75 20.1339L8.06689 22.817C7.82288 23.061 7.42712 23.061 7.18311 22.817C6.93896 22.5728 6.93896 22.1771 7.18311 21.9331L9.86609 19.25L7.18311 16.567C6.93896 16.3229 6.93896 15.9271 7.18311 15.6831C7.42712 15.4389 7.82288 15.4389 8.06689 15.6831L10.75 18.3661L13.4331 15.683C13.6771 15.4389 14.0729 15.4389 14.3169 15.683C14.561 15.9271 14.561 16.3229 14.3169 16.567Z" fill="white"/>
</svg>
