<svg width="20" height="21" viewBox="0 0 20 21" fill="none" xmlns="http://www.w3.org/2000/svg">
<path d="M10.8018 4.5267C10.7747 4.02573 10.257 4.11096 9.75195 4.11096C10.125 4.20924 10.478 4.34598 10.8018 4.5267Z" fill="#FAFAFA"/>
<path d="M5.40256 3.27148C3.44185 3.27148 2.53937 5.72613 4.10677 6.96069C4.64109 5.54953 5.70478 4.53627 7.09922 4.13633C6.71777 3.61474 6.10148 3.27148 5.40256 3.27148Z" fill="#FAFAFA"/>
<path d="M1.35207 6.57646C1.43198 6.83006 1.53551 7.07335 1.65849 7.30386L1.01442 7.94125C0.841461 8.11232 0.841461 8.39 1.01442 8.56143L2.14969 9.68465C2.23237 9.76643 2.34565 9.81245 2.46372 9.81245C2.58049 9.81245 2.69301 9.76643 2.77712 9.68465L3.42047 9.04726C3.51702 9.09779 3.62404 9.12877 3.72403 9.17236C3.72403 9.1651 3.72331 9.15758 3.72331 9.15032C3.72331 8.62944 3.7838 8.13808 3.89149 7.67667C3.11472 7.18221 2.59641 6.32392 2.59641 5.34398C2.59641 3.81325 3.85534 2.56771 5.40261 2.56771C6.45032 2.56771 7.35491 3.14461 7.83779 3.98746C8.35332 3.92423 8.83758 3.92423 9.42049 4.03317C9.34551 3.80882 9.25728 3.58925 9.14678 3.38343L9.79085 2.74573C9.87487 2.6636 9.9214 2.55191 9.9214 2.4358C9.9214 2.31964 9.87487 2.20799 9.79085 2.12586L8.65621 1.00335C8.56941 0.917457 8.45613 0.874843 8.3429 0.874843C8.22962 0.874843 8.11638 0.917457 8.03021 1.00335L7.38408 1.64105C7.15068 1.51874 6.90541 1.41634 6.64839 1.33904V0.438085C6.64839 0.196209 6.45104 0 6.20578 0H4.60016C4.35629 0 4.15684 0.196209 4.15684 0.438085V1.33899C3.90048 1.4163 3.65518 1.5187 3.42105 1.64101L2.77712 1.00401C2.69023 0.918121 2.577 0.875507 2.46372 0.875507C2.35048 0.875507 2.23657 0.918121 2.15041 1.00366L1.01442 2.12617C0.931746 2.20866 0.885217 2.31995 0.885217 2.43646C0.885217 2.55293 0.931746 2.66427 1.01442 2.7464L1.65849 3.38374C1.53546 3.61465 1.43198 3.85758 1.35351 4.11114H0.443324C0.198062 4.11114 0 4.30766 0 4.54989V6.13802C0 6.37954 0.198062 6.57646 0.443324 6.57646H1.35207Z" fill="#FAFAFA"/>
<path d="M15.2608 15.0744C15.9709 14.6892 16.4586 13.9519 16.4586 13.0963C16.4586 11.8476 15.431 10.832 14.1686 10.832C13.7247 10.832 13.3133 10.9633 12.9618 11.1804C12.7513 12.0092 12.4199 12.8019 11.9863 13.4904C13.2153 13.7189 14.343 14.2725 15.2608 15.0744Z" fill="#FAFAFA"/>
<path d="M19.9992 12.2391C19.9992 11.9776 19.7845 11.7659 19.5212 11.7659H18.5388C18.454 11.4921 18.3415 11.2296 18.2081 10.9805L18.9035 10.2926C18.9939 10.204 19.0439 10.0837 19.0439 9.95833C19.0439 9.83287 18.9938 9.7126 18.9035 9.62365L17.6793 8.41246C17.5862 8.31997 17.4633 8.2736 17.341 8.2736C17.2187 8.2736 17.0964 8.31997 17.0034 8.41246L16.3065 9.10065C16.0549 8.96869 15.7903 8.85811 15.5123 8.77457V7.8029C15.5123 7.54178 15.299 7.33008 15.035 7.33008H13.303C13.1869 7.33008 13.0848 7.3761 13.0015 7.44416C13.1473 7.97052 13.2272 8.54127 13.2272 9.15012C13.2272 9.53666 13.1967 9.92912 13.1397 10.3194C13.4621 10.2018 13.8053 10.128 14.1687 10.128C15.8236 10.128 17.1701 11.4595 17.1701 13.0959C17.1701 14.1419 16.6178 15.0586 15.7889 15.5874C16.392 16.2416 16.8713 17.0178 17.1833 17.8874C17.2347 17.9049 17.2882 17.9177 17.3417 17.9177C17.464 17.9177 17.5863 17.8717 17.6801 17.7792L18.905 16.568C18.9946 16.4793 19.0439 16.3591 19.0439 16.2337C19.0439 16.1082 18.9946 15.988 18.905 15.899L18.2081 15.2108C18.3415 14.9621 18.4541 14.6995 18.5389 14.4253H19.5212C19.6477 14.4253 19.7706 14.3759 19.8596 14.2865C19.9492 14.1982 20 14.0776 20 13.9522L19.9992 12.2391Z" fill="#FAFAFA"/>
<path d="M16.2078 18.3155C15.4651 16.1539 13.5024 14.6672 11.2367 14.4648C10.478 15.2595 9.53863 15.7637 8.47486 15.7637C7.41189 15.7637 6.47183 15.2595 5.71385 14.4648C3.44681 14.6672 1.48404 16.1539 0.741271 18.3158L0.330697 19.5112C0.213255 19.8552 0.269493 20.2342 0.483527 20.5293C0.697516 20.8245 1.04214 20.9997 1.40896 20.9997H15.5401C15.9076 20.9997 16.2522 20.8245 16.4663 20.5293C16.6796 20.2342 16.7366 19.8552 16.6184 19.5112L16.2078 18.3155Z" fill="#FAFAFA"/>
<path d="M4.79053 9.15041C4.79053 11.8315 6.44066 14.7085 8.47492 14.7085C10.51 14.7085 12.16 11.8315 12.16 9.15041C12.1601 3.59274 4.79053 3.58173 4.79053 9.15041Z" fill="#FAFAFA"/>
</svg>
