<svg width="30" height="30" viewBox="0 0 30 30" fill="none" xmlns="http://www.w3.org/2000/svg">
<path fill-rule="evenodd" clip-rule="evenodd" d="M6 0C2.68628 0 0 2.68629 0 6V24C0 27.3137 2.68628 30 6 30H24C27.3137 30 30 27.3137 30 24V6C30 2.68629 27.3137 0 24 0H6ZM6 24.0005V20.2505L17.06 9.19055L20.81 12.9406L9.75 24.0005H6ZM23.71 8.63055C24.1 9.02055 24.1 9.65054 23.71 10.0405L21.88 11.8705L18.13 8.12054L19.96 6.29054C20.35 5.90054 20.98 5.90054 21.37 6.29054L23.71 8.63055Z" fill="#42A5F5"/>
</svg>
