<svg width="60" height="60" viewBox="0 0 60 60" fill="none" xmlns="http://www.w3.org/2000/svg">
<path 
    d="M47.5044 0H12.5016C9.18628 0.000318139 6.00681 1.31738 3.66241 3.66156C1.31801 6.00574 0.000636385 9.18508 0 12.5004L0 47.5032C0.00159069 50.8179 1.31938 53.9963 3.66368 56.3397C6.00798 58.6831 9.1869 59.9997 12.5016 60H47.5044C50.8183 59.9987 53.996 58.6817 56.3391 56.3383C58.6823 53.9949 59.999 50.8171 60 47.5032V12.5004C60 9.18592 58.6837 6.00712 56.3404 3.66298C53.9972 1.31884 50.8189 0.00127272 47.5044 0V0ZM40.0032 17.5008H35.1924C33.6552 17.5008 32.502 18.1308 32.502 19.7232V22.5012H40.0032L39.408 30H32.5032V50.004H25.002V30H20.0016V22.5H25.002V17.694C25.002 12.6384 27.6624 10.0008 33.6552 10.0008H40.0032V17.5008Z" 
    fill="currentColor" stroke="currentColor"/>
</svg>
