<svg width="60" height="60" viewBox="0 0 60 60" fill="none" xmlns="http://www.w3.org/2000/svg">
<path d="M47.5044 0H12.5016C9.18628 0.000318139 6.00681 1.31738 3.66241 3.66156C1.31801 6.00574 0.000636385 9.18507 0 12.5004L0 47.5032C0.00159069 50.8179 1.31938 53.9963 3.66368 56.3397C6.00798 58.6831 9.1869 59.9997 12.5016 60H47.5044C50.8183 59.9987 53.996 58.6817 56.3391 56.3383C58.6823 53.9949 59.9991 50.8171 60 47.5032V12.5004C60 9.18592 58.6837 6.00712 56.3404 3.66298C53.9972 1.31884 50.8189 0.00127272 47.5044 0V0ZM36.3444 48.9792C35.3316 49.1748 35.0088 48.552 35.0088 48.0192V42.5304C35.0577 41.8507 34.9602 41.1684 34.723 40.5296C34.4858 39.8908 34.1143 39.3102 33.6336 38.8272C38.0892 38.3316 42.7692 36.6396 42.7692 28.9584C42.7981 26.9713 42.0612 25.0493 40.7112 23.5908C41.3202 21.8653 41.2494 19.9727 40.5132 18.2976C40.5132 18.2976 38.8332 17.76 35.0172 20.3472C31.7383 19.4471 28.2773 19.4471 24.9984 20.3472C21.1776 17.76 19.4976 18.2976 19.4976 18.2976C18.7627 19.9742 18.6941 21.8678 19.3056 23.5932C17.9543 25.051 17.2165 26.9733 17.2452 28.9608C17.2452 36.6216 21.9132 38.3388 26.358 38.8464C25.6255 39.5558 25.172 40.5045 25.08 41.52C24.5891 41.7955 24.0485 41.9711 23.4895 42.0364C22.9304 42.1018 22.3639 42.0557 21.8227 41.9008C21.2815 41.7459 20.7764 41.4854 20.3365 41.1341C19.8967 40.7828 19.5308 40.3479 19.26 39.8544C18.9403 39.3005 18.4986 38.8267 17.9684 38.469C17.4381 38.1114 16.8334 37.8793 16.2 37.7904C16.2 37.7904 14.25 37.7652 16.062 39.0084C17.1282 39.6871 17.9165 40.7248 18.2844 41.934C18.2844 41.934 19.4424 45.504 25.0044 44.2944V48.0144C25.0044 48.5424 24.6816 49.1616 23.6844 48.9744C19.1813 47.4719 15.3596 44.4162 12.9032 40.354C10.4467 36.2918 9.51575 31.4881 10.2768 26.8023C11.0379 22.1165 13.4414 17.8544 17.0572 14.7785C20.6731 11.7025 25.2654 10.0135 30.0126 10.0135C34.7598 10.0135 39.3521 11.7025 42.968 14.7785C46.5838 17.8544 48.9873 22.1165 49.7484 26.8023C50.5094 31.4881 49.5785 36.2918 47.122 40.354C44.6656 44.4162 40.844 47.4719 36.3408 48.9744L36.3444 48.9792Z" fill="#1D2731"/>
</svg>
