<svg width="60" height="60" viewBox="0 0 60 60" fill="none" xmlns="http://www.w3.org/2000/svg">
<path d="M38.0856 13.7208C35.9784 13.626 35.3424 13.6008 30.0024 13.6008C24.6624 13.6008 24.03 13.6212 21.9216 13.7208C16.4964 13.968 13.968 16.5384 13.7232 21.9192C13.626 24.0288 13.6032 24.6624 13.6032 30.0024C13.6032 35.3424 13.626 35.9748 13.7232 38.0856C13.9704 43.4556 16.4832 46.0368 21.9216 46.284C24.0288 46.3788 24.6648 46.404 30.0048 46.404C35.3448 46.404 35.9808 46.3836 38.088 46.284C43.5132 46.0368 46.0392 43.4616 46.2864 38.0856C46.3812 35.976 46.4064 35.3424 46.4064 30.0024C46.4064 24.6624 46.386 24.03 46.2864 21.9216C46.0368 16.5408 43.506 13.968 38.0856 13.7208ZM30 40.2732C27.9688 40.2727 25.9834 39.67 24.2948 38.5413C22.6061 37.4125 21.29 35.8084 20.513 33.9318C19.7359 32.0551 19.5327 29.9902 19.9291 27.9981C20.3254 26.006 21.3036 24.1761 22.7398 22.7398C24.1761 21.3036 26.006 20.3254 27.9981 19.9291C29.9902 19.5327 32.0551 19.7359 33.9318 20.513C35.8084 21.29 37.4125 22.6061 38.5413 24.2948C39.67 25.9834 40.2727 27.9688 40.2732 30C40.2737 31.3492 40.0083 32.6853 39.4922 33.9319C38.9761 35.1786 38.2194 36.3113 37.2653 37.2653C36.3113 38.2194 35.1786 38.9761 33.9319 39.4922C32.6853 40.0083 31.3492 40.2737 30 40.2732ZM40.68 21.7272C40.2053 21.7272 39.7413 21.5864 39.3466 21.3227C38.952 21.059 38.6443 20.6842 38.4627 20.2456C38.281 19.8071 38.2335 19.3245 38.3261 18.859C38.4187 18.3934 38.6473 17.9658 38.9829 17.6301C39.3186 17.2945 39.7462 17.0659 40.2118 16.9733C40.6773 16.8807 41.1599 16.9282 41.5984 17.1099C42.037 17.2915 42.4118 17.5992 42.6755 17.9938C42.9392 18.3885 43.08 18.8525 43.08 19.3272C43.08 19.9637 42.8271 20.5742 42.3771 21.0243C41.927 21.4743 41.3165 21.7272 40.68 21.7272ZM36.6708 30C36.6713 31.3189 36.2806 32.6083 35.5483 33.7052C34.816 34.802 33.7748 35.6571 32.5565 36.1623C31.3382 36.6674 29.9975 36.8 28.7038 36.5431C27.4102 36.2863 26.2218 35.6516 25.2888 34.7194C24.3559 33.7871 23.7204 32.5991 23.4626 31.3057C23.2048 30.0122 23.3364 28.6714 23.8407 27.4527C24.345 26.2341 25.1993 25.1923 26.2956 24.4592C27.392 23.726 28.6811 23.3345 30 23.334C30.8757 23.3337 31.7429 23.5059 32.5521 23.8407C33.3612 24.1755 34.0965 24.6664 34.716 25.2854C35.3354 25.9044 35.8269 26.6394 36.1623 27.4483C36.4977 28.2572 36.6705 29.1243 36.6708 30ZM47.5044 0H12.5016C9.18628 0.000318139 6.00681 1.31738 3.66241 3.66156C1.31801 6.00574 0.000636385 9.18507 0 12.5004L0 47.5032C0.00159069 50.8179 1.31938 53.9963 3.66368 56.3397C6.00798 58.6831 9.1869 59.9997 12.5016 60H47.5044C50.8183 59.9987 53.996 58.6817 56.3391 56.3383C58.6823 53.9949 59.9991 50.8171 60 47.5032V12.5004C60 9.18592 58.6837 6.00712 56.3404 3.66298C53.9972 1.31884 50.8189 0.00127272 47.5044 0V0ZM49.884 38.2476C49.554 45.5208 45.5064 49.5504 38.25 49.8876C36.1152 49.9848 35.4348 50.0076 30.0024 50.0076C24.57 50.0076 23.892 49.9848 21.7572 49.8876C14.4864 49.5552 10.4568 45.5172 10.1172 38.2476C10.02 36.1152 9.9972 35.4348 9.9972 30.0024C9.9972 24.57 10.02 23.8896 10.1172 21.7572C10.452 14.4864 14.4876 10.4544 21.7572 10.1232C23.892 10.0236 24.57 10.0032 30.0024 10.0032C35.4348 10.0032 36.1152 10.026 38.25 10.1232C45.5208 10.4556 49.5588 14.5008 49.884 21.7572C49.9812 23.892 50.004 24.5748 50.004 30.0048C50.004 35.4348 49.9812 36.12 49.884 38.2476Z" fill="#1D2731"/>
</svg>
