<svg width="30" height="30" viewBox="0 0 30 30" fill="none" xmlns="http://www.w3.org/2000/svg">
<rect width="30" height="30" rx="6" fill="#1D2731"/>
<path d="M23.8529 10.5113L19.1971 15.2037C19.1889 15.2114 19.1824 15.2207 19.178 15.231C19.1735 15.2413 19.1712 15.2523 19.1712 15.2636C19.1712 15.2748 19.1735 15.2859 19.178 15.2962C19.1824 15.3064 19.1889 15.3157 19.1971 15.3234L22.4551 18.7563C22.5075 18.8077 22.5491 18.8689 22.5775 18.9365C22.6059 19.0041 22.6205 19.0767 22.6205 19.15C22.6205 19.2233 22.6059 19.2959 22.5775 19.3635C22.5491 19.4311 22.5075 19.4924 22.4551 19.5438C22.3492 19.6485 22.2061 19.7073 22.057 19.7073C21.908 19.7073 21.7649 19.6485 21.659 19.5438L18.4138 16.1237C18.3971 16.1073 18.3746 16.0981 18.3511 16.0981C18.3276 16.0981 18.3051 16.1073 18.2883 16.1237L17.4963 16.9199C17.1713 17.2476 16.7845 17.5079 16.3582 17.6856C15.932 17.8634 15.4748 17.9551 15.0129 17.9555C14.5407 17.9541 14.0735 17.8592 13.6383 17.6762C13.2031 17.4932 12.8085 17.2259 12.4774 16.8896L11.7158 16.1232C11.699 16.1068 11.6765 16.0975 11.653 16.0975C11.6296 16.0975 11.607 16.1068 11.5903 16.1232L8.34515 19.5432C8.23922 19.648 8.09617 19.7068 7.94709 19.7068C7.79802 19.7068 7.65496 19.648 7.54904 19.5432C7.49665 19.4919 7.45504 19.4306 7.42663 19.363C7.39822 19.2954 7.38359 19.2228 7.38359 19.1495C7.38359 19.0762 7.39822 19.0036 7.42663 18.936C7.45504 18.8684 7.49665 18.8071 7.54904 18.7558L10.807 15.3229C10.8216 15.3064 10.8297 15.2851 10.8297 15.263C10.8297 15.241 10.8216 15.2197 10.807 15.2032L6.14709 10.5113C6.13524 10.4989 6.11993 10.4904 6.10316 10.4868C6.08638 10.4832 6.06892 10.4848 6.05305 10.4913C6.03717 10.4978 6.02362 10.5089 6.01416 10.5232C6.0047 10.5375 5.99977 10.5543 6.00001 10.5714V19.9588C6.00273 20.3235 6.14987 20.6724 6.40928 20.9291C6.6687 21.1858 7.0193 21.3295 7.38446 21.3288H22.6155C22.9807 21.3295 23.3313 21.1858 23.5907 20.9291C23.8501 20.6724 23.9973 20.3235 24 19.9588V10.5714C23.9995 10.5546 23.9942 10.5383 23.9846 10.5245C23.975 10.5107 23.9616 10.4999 23.946 10.4935C23.9305 10.4872 23.9134 10.4855 23.8968 10.4886C23.8803 10.4918 23.8651 10.4996 23.8529 10.5113Z" fill="white"/>
<path d="M14.9999 16.8377C15.3147 16.839 15.6265 16.7776 15.9173 16.657C16.208 16.5365 16.4717 16.3591 16.6929 16.1355L23.4856 9.29948C23.2422 9.10517 22.9398 8.99953 22.6283 9.00001H7.37611C7.06443 8.99878 6.76178 9.1045 6.5188 9.29948L13.3115 16.136C13.5322 16.359 13.7952 16.5359 14.0851 16.6564C14.3749 16.7768 14.6859 16.8385 14.9999 16.8377Z" fill="white"/>
</svg>
