<svg width="30" height="30" viewBox="0 0 30 30" fill="none" xmlns="http://www.w3.org/2000/svg">
<rect width="30" height="30" rx="6" fill="#1D2731"/>
<rect width="30" height="30" rx="6" fill="#1D2731"/>
<path d="M21.9091 6H8.81818C8.36633 6 8 6.36633 8 6.81818V23.1818C8 23.6337 8.36633 24 8.81818 24H21.9091C22.3609 24 22.7273 23.6337 22.7273 23.1818V6.81818C22.7273 6.36633 22.3609 6 21.9091 6ZM21.0909 22.3636H9.63636V7.63636H21.0909V22.3636Z" fill="white"/>
<path d="M12.0909 20.728H18.6363C19.0882 20.728 19.4545 20.3617 19.4545 19.9098V10.0916C19.4545 9.63976 19.0882 9.27344 18.6363 9.27344H12.0909C11.639 9.27344 11.2727 9.63976 11.2727 10.0916V19.9098C11.2727 20.3617 11.639 20.728 12.0909 20.728ZM17.8182 15.8189H12.9091V14.1825H17.8182V15.8189ZM12.9091 19.0916V17.4553H17.8182V19.0916H12.9091ZM17.8182 10.9098V12.5462H12.9091V10.9098H17.8182Z" fill="white"/>
</svg>
