<svg width="30" height="30" viewBox="0 0 30 30" fill="none" xmlns="http://www.w3.org/2000/svg">
<rect width="30" height="30" rx="6" fill="#1D2731"/>
<path d="M16.9394 10.5376C16.9394 11.3164 16.7085 12.0777 16.2758 12.7252C15.8432 13.3727 15.2282 13.8774 14.5087 14.1755C13.7892 14.4735 12.9975 14.5515 12.2336 14.3995C11.4698 14.2476 10.7682 13.8726 10.2175 13.3219C9.66683 12.7712 9.2918 12.0696 9.13987 11.3058C8.98794 10.542 9.06591 9.75023 9.36394 9.03073C9.66197 8.31122 10.1667 7.69625 10.8142 7.26358C11.4617 6.83091 12.223 6.59998 13.0018 6.59998C14.0461 6.59998 15.0477 7.01483 15.7861 7.75328C16.5246 8.49172 16.9394 9.49327 16.9394 10.5376Z" fill="white"/>
<path d="M16.4344 16.0458H9.7406C8.74886 16.0469 7.79806 16.4414 7.0968 17.1426C6.39554 17.8439 6.00109 18.7947 6 19.7864V22.5419C6.00018 22.6984 6.06244 22.8485 6.17312 22.9592C6.28379 23.0699 6.43385 23.1321 6.59037 23.1323H19.5839C19.7405 23.1321 19.8905 23.0699 20.0012 22.9592C20.1119 22.8485 20.1741 22.6984 20.1743 22.5419V19.7864C20.1732 18.7948 19.7789 17.8441 19.0777 17.1429C18.3766 16.4417 17.426 16.0471 16.4344 16.0458Z" fill="white"/>
<path d="M24.4116 13.2531L21.6561 10.6939C21.5717 10.6159 21.4664 10.5642 21.3531 10.545C21.2397 10.5259 21.1233 10.5401 21.0179 10.5861C20.9126 10.6321 20.8229 10.7077 20.7598 10.8038C20.6967 10.8999 20.663 11.0123 20.6628 11.1272V12.899H17.5132C17.3044 12.899 17.1041 12.9819 16.9565 13.1296C16.8088 13.2773 16.7258 13.4776 16.7258 13.6864C16.7258 13.8952 16.8088 14.0955 16.9565 14.2431C17.1041 14.3908 17.3044 14.4738 17.5132 14.4738H20.6628V16.2456C20.6627 16.3606 20.6962 16.4732 20.7592 16.5695C20.8223 16.6658 20.912 16.7416 21.0175 16.7876C21.123 16.8336 21.2396 16.8478 21.353 16.8285C21.4665 16.8092 21.5718 16.7572 21.6561 16.6789L24.4116 14.1197C24.4711 14.0642 24.5185 13.9972 24.5509 13.9226C24.5833 13.8481 24.6 13.7677 24.6 13.6864C24.6 13.6051 24.5833 13.5247 24.5509 13.4501C24.5185 13.3756 24.4711 13.3085 24.4116 13.2531Z" fill="white"/>
</svg>
