<svg width="30" height="30" viewBox="0 0 30 30" fill="none" xmlns="http://www.w3.org/2000/svg">
<rect width="30" height="30" rx="6" fill="#1D2731"/>
<path d="M16.0675 24.6C17.5678 24.6013 19.0494 24.2827 20.4038 23.6676C21.7581 23.0524 22.9509 22.1563 23.8946 21.0449C23.9555 20.9733 23.9919 20.8855 23.9988 20.7935C24.0057 20.7015 23.9828 20.6098 23.9331 20.5306C23.8835 20.4514 23.8096 20.3887 23.7213 20.3508C23.633 20.313 23.5347 20.3019 23.4396 20.319C21.6034 20.6526 19.7025 20.3544 18.0754 19.4775C16.4483 18.6006 15.2006 17.202 14.5545 15.5305C13.9083 13.8591 13.9057 12.0234 14.547 10.3503C15.1882 8.67722 16.4319 7.27527 18.0564 6.39409C18.1404 6.34837 18.2077 6.27918 18.2492 6.19585C18.2906 6.11253 18.3042 6.01909 18.2881 5.92818C18.272 5.83726 18.227 5.75324 18.1592 5.68747C18.0914 5.6217 18.004 5.57736 17.9089 5.56043C16.5319 5.31752 15.1169 5.35081 13.7542 5.65817C12.3915 5.96553 11.111 6.54021 9.99439 7.34554C8.87782 8.15087 7.9497 9.16916 7.26926 10.3354C6.58883 11.5017 6.17102 12.7903 6.04251 14.1191C5.914 15.4478 6.07761 16.7875 6.52289 18.0526C6.96818 19.3177 7.68536 20.4805 8.62866 21.4667C9.57197 22.4529 10.7207 23.2409 12.0015 23.7804C13.2823 24.3199 14.6671 24.599 16.0675 24.6Z" fill="white"/>
</svg>
