<svg width="50" height="50" viewBox="0 0 50 50" fill="none" xmlns="http://www.w3.org/2000/svg">
<circle cx="25" cy="25" r="25" transform="rotate(-90 25 25)" fill="#F5F5F5"/>
<path d="M31.3811 17.6161C31.3811 18.9246 30.9931 20.2038 30.2661 21.2918C29.5391 22.3798 28.5058 23.2278 27.2969 23.7285C26.0879 24.2293 24.7577 24.3603 23.4743 24.105C22.1909 23.8498 21.012 23.2196 20.0867 22.2944C19.1615 21.3691 18.5313 20.1902 18.2761 18.9068C18.0208 17.6234 18.1518 16.2931 18.6525 15.0842C19.1533 13.8753 20.0013 12.842 21.0893 12.115C22.1773 11.388 23.4565 11 24.765 11C26.5197 11 28.2025 11.697 29.4433 12.9378C30.684 14.1786 31.3811 15.8614 31.3811 17.6161Z" fill="#1D2731"/>
<path d="M30.5323 26.8712H19.2852C17.6188 26.8731 16.0213 27.5358 14.843 28.7141C13.6647 29.8924 13.002 31.4899 13.0001 33.1563V37.7861C13.0004 38.0491 13.105 38.3013 13.291 38.4872C13.477 38.6732 13.7291 38.7778 13.9921 38.7781H35.8242C36.0872 38.7778 36.3393 38.6732 36.5253 38.4872C36.7113 38.3013 36.8159 38.0491 36.8162 37.7861V33.1563C36.8143 31.4901 36.1517 29.8928 34.9737 28.7145C33.7957 27.5363 32.1984 26.8734 30.5323 26.8712Z" fill="#1D2731"/>
</svg>
