<svg width="20" height="21" viewBox="0 0 20 21" fill="none" xmlns="http://www.w3.org/2000/svg">
<path fill-rule="evenodd" clip-rule="evenodd" d="M3 0C1.34315 0 0 1.34315 0 3V18C0 19.6569 1.34315 21 3 21H17C18.6569 21 20 19.6569 20 18V3C20 1.34315 18.6569 0 17 0H3ZM5 13.9648H15.3448V13.4648H5V13.9648ZM15.3448 16.5508H5V16.0508H15.3448V16.5508ZM10.2263 3.89377C10.1851 3.80603 10.0969 3.75 10 3.75C9.90307 3.75 9.81488 3.80603 9.77369 3.89377L8.90332 5.74791L6.96202 6.04628C6.86943 6.06051 6.79257 6.12531 6.76288 6.21416C6.7332 6.30301 6.75568 6.401 6.82112 6.46803L8.23294 7.91399L7.89926 9.95975C7.88385 10.0542 7.92376 10.1492 8.00203 10.2044C8.08031 10.2595 8.1832 10.2651 8.26698 10.2188L10 9.26044L11.733 10.2188C11.8168 10.2651 11.9197 10.2595 11.998 10.2044C12.0762 10.1492 12.1162 10.0542 12.1007 9.95975L11.7671 7.91399L13.1789 6.46803C13.2443 6.401 13.2668 6.30301 13.2371 6.21416C13.2074 6.12531 13.1306 6.06051 13.038 6.04628L11.0967 5.74791L10.2263 3.89377ZM9.29931 6.081L10 4.58833L10.7007 6.081C10.7361 6.15639 10.8067 6.20921 10.889 6.22186L12.4815 6.46661L11.3211 7.655C11.2657 7.7118 11.2405 7.79155 11.2533 7.8699L11.5244 9.53204L10.121 8.75599C10.0457 8.71436 9.9543 8.71436 9.87902 8.75599L8.47563 9.53204L8.74674 7.8699C8.75952 7.79155 8.73433 7.7118 8.67888 7.655L7.51855 6.46661L9.11098 6.22186C9.1933 6.20921 9.26391 6.15639 9.29931 6.081Z" fill="white"/>
</svg>
