<svg width="30" height="30" viewBox="0 0 30 30" fill="none" xmlns="http://www.w3.org/2000/svg">
<rect width="30" height="30" rx="6" fill="#1D2731"/>
<path d="M17.583 10.1693C17.583 10.9939 17.3385 11.8 16.8804 12.4857C16.4222 13.1713 15.7711 13.7057 15.0092 14.0213C14.2474 14.3368 13.4091 14.4194 12.6003 14.2585C11.7915 14.0976 11.0486 13.7006 10.4656 13.1175C9.88246 12.5344 9.48537 11.7915 9.3245 10.9827C9.16363 10.1739 9.24619 9.33563 9.56176 8.57379C9.87732 7.81195 10.4117 7.16079 11.0974 6.70266C11.783 6.24453 12.5891 6 13.4137 6C14.5195 6 15.58 6.43927 16.3619 7.22116C17.1438 8.00306 17.583 9.06355 17.583 10.1693Z" fill="white"/>
<path d="M17.0484 16.0017H9.96071C8.91062 16.0029 7.90387 16.4205 7.16134 17.1631C6.41882 17.9056 6.00116 18.9123 6 19.9624V22.8801C6.00019 23.0458 6.06611 23.2047 6.1833 23.3219C6.30049 23.4391 6.45938 23.505 6.62511 23.5052H20.3833C20.549 23.505 20.7079 23.4391 20.8251 23.3219C20.9423 23.2047 21.0082 23.0458 21.0084 22.8801V19.9624C21.0072 18.9124 20.5897 17.9058 19.8473 17.1633C19.1049 16.4208 18.0984 16.0031 17.0484 16.0017Z" fill="white"/>
<path d="M18.0354 13.3895H24.6001" stroke="white" stroke-width="2.3" stroke-linecap="round"/>
<path d="M21.3176 10.1072V16.6719" stroke="white" stroke-width="2.3" stroke-linecap="round"/>
</svg>
