<svg width="32" height="32" viewBox="0 0 32 32" fill="none" xmlns="http://www.w3.org/2000/svg">
<path d="M30.1654 15.65L31.2968 14.5188C32.2344 13.5813 32.2344 12.0625 31.2968 11.125C30.3592 10.1875 28.8403 10.1875 27.9027 11.125L25.5962 13.4312V9.6L16.0078 0H4.00039C1.79393 0 0 1.79375 0 4V28C0 30.2062 1.79393 32 4.00039 32H21.6021C23.8086 32 25.6025 30.2062 25.6025 28V20.2188L29.0403 16.7812L29.6029 17.3438L28.4715 18.475C28.1527 18.7813 28.1465 19.2875 28.4528 19.6063C28.7591 19.925 29.2654 19.9313 29.5841 19.625C29.5904 19.6187 29.5966 19.6125 29.6029 19.6063L31.3031 17.9062C31.6156 17.5938 31.6156 17.0875 31.3031 16.775L30.1654 15.65ZM16.8016 3.06875L22.5209 8.8H19.2019C17.8767 8.8 16.8016 7.725 16.8016 6.4V3.06875ZM24.0023 28C24.0023 29.325 22.9272 30.4 21.6021 30.4H4.00039C2.67526 30.4 1.60016 29.325 1.60016 28V4C1.60016 2.675 2.67526 1.6 4.00039 1.6H15.2015V6.4C15.2015 8.60625 16.9954 10.4 19.2019 10.4H24.0023V15.0312L16.5891 22.4375C15.8703 23.1562 15.6828 24.25 16.1266 25.1625L16.0578 25.2313C15.1952 24.3063 14.3514 23.9 13.5013 24.0063C12.6887 24.1063 12.2012 24.6312 11.8074 25.0562C11.5136 25.375 11.3199 25.575 11.1011 25.6063C11.0073 25.6 10.7573 25.3187 10.6073 25.1437C10.2385 24.7062 9.7322 24.1125 8.88837 24.0063C7.84452 23.8813 6.82567 24.5063 5.75681 25.9188C5.48179 26.2688 5.54429 26.7688 5.89433 27.0438C6.24436 27.3188 6.74441 27.2562 7.01944 26.9062C7.02569 26.9 7.03194 26.8938 7.03819 26.8875C7.6945 26.0188 8.30081 25.5438 8.7071 25.6C8.90712 25.625 9.11339 25.8437 9.39467 26.1812C9.7697 26.6187 10.2698 27.2125 11.0823 27.2125C11.1511 27.2125 11.2261 27.2063 11.2949 27.2C12.1074 27.1 12.595 26.575 12.9888 26.15C13.2888 25.825 13.4763 25.6313 13.6951 25.6C14.0951 25.5438 14.7014 26.025 15.364 26.8875C15.514 27.0813 15.7453 27.2 15.9953 27.2C16.0078 27.2 16.0266 27.2 16.0391 27.2H16.0703C16.2703 27.1938 16.4579 27.1063 16.5954 26.9688L17.2642 26.3C18.1768 26.75 19.2769 26.5625 19.9895 25.8375L24.0148 21.8188V28H24.0023ZM18.8518 24.7C18.5393 25.0125 18.033 25.0125 17.7205 24.7C17.4079 24.3875 17.4079 23.8813 17.7205 23.5688L26.7714 14.5188L27.9027 15.65L18.8518 24.7ZM29.0341 14.5188L28.8278 14.3125L27.9027 13.3875L29.0341 12.2563C29.0966 12.2 29.1653 12.15 29.2404 12.1125C29.3091 12.075 29.3841 12.05 29.4591 12.0375C29.5029 12.0313 29.5529 12.025 29.5966 12.025C29.6466 12.025 29.6904 12.0312 29.7404 12.0437C29.8342 12.0625 29.9217 12.0937 30.0029 12.1375C30.3842 12.3625 30.5092 12.8563 30.278 13.2375C30.2467 13.2938 30.2029 13.3438 30.1592 13.3938L29.0341 14.5188ZM5.60055 12C5.60055 11.5563 5.95683 11.2 6.40062 11.2H11.2261C11.6699 11.2 12.0262 11.5563 12.0262 12C12.0262 12.4437 11.6699 12.8 11.2261 12.8H6.40062C5.95683 12.8 5.60055 12.4437 5.60055 12ZM5.60055 15.2C5.60055 14.7562 5.95683 14.4 6.40062 14.4H16.0266C16.4704 14.4 16.8266 14.7562 16.8266 15.2C16.8266 15.6437 16.4704 16 16.0266 16H6.40062C5.95683 16 5.60055 15.6437 5.60055 15.2Z" fill="white"/>
</svg>
