<svg width="30" height="30" viewBox="0 0 30 30" fill="none" xmlns="http://www.w3.org/2000/svg">
<rect width="30" height="30" rx="6" fill="#1D2731"/>
<path d="M13.5001 21.875C13.4766 21.8125 13.4685 21.7594 13.4765 21.7164C13.4844 21.6737 13.4571 21.6383 13.3945 21.6111C13.3319 21.5838 13.3007 21.5622 13.3007 21.5468C13.3007 21.5312 13.2558 21.5194 13.1659 21.5117C13.076 21.5038 13.0312 21.4999 13.0312 21.4999H12.8789H12.75H9.37495C8.85934 21.4999 8.41789 21.3164 8.05065 20.949C7.6835 20.5818 7.49994 20.1405 7.49994 19.6249V11.3748C7.49994 10.8592 7.68345 10.4179 8.05065 10.0507C8.41789 9.68345 8.85934 9.49977 9.37495 9.49977H13.1249C13.2265 9.49977 13.3064 9.47457 13.3651 9.42368C13.4236 9.3729 13.4626 9.29668 13.4822 9.19513C13.5018 9.09358 13.5136 9.00189 13.5175 8.91984C13.5214 8.83787 13.5195 8.73427 13.5116 8.60928C13.5038 8.48434 13.4999 8.40623 13.4999 8.37483C13.4999 8.27328 13.4628 8.18557 13.3886 8.11119C13.3144 8.03715 13.2265 8 13.125 8H9.37495C8.44535 8 7.65037 8.33009 6.99015 8.99023C6.33009 9.65037 6 10.4452 6 11.3749V19.6249C6 20.5545 6.33009 21.3495 6.99015 22.0094C7.65037 22.6699 8.44535 23 9.37495 23H13.1251C13.2267 23 13.3066 22.9745 13.3653 22.9239C13.4238 22.873 13.4628 22.7969 13.4824 22.6952C13.5019 22.5938 13.5137 22.5017 13.5177 22.4199C13.5215 22.3379 13.5196 22.2345 13.5118 22.1095C13.5039 21.9844 13.5001 21.9063 13.5001 21.875Z" fill="white"/>
<path d="M24.1525 14.9726L17.7775 8.59739C17.6292 8.44913 17.4533 8.37476 17.2502 8.37476C17.0471 8.37476 16.8712 8.44913 16.7227 8.59739C16.5743 8.74585 16.5001 8.92181 16.5001 9.12483V12.4999H11.2501C11.0468 12.4999 10.8711 12.5742 10.7226 12.7225C10.5742 12.871 10.5 13.0468 10.5 13.2499V17.75C10.5 17.9531 10.5742 18.129 10.7226 18.2774C10.8713 18.4255 11.0469 18.5001 11.2501 18.5001H16.5001V21.8751C16.5001 22.0781 16.5743 22.2541 16.7228 22.4024C16.8712 22.5509 17.0471 22.6252 17.2502 22.6252C17.4533 22.6252 17.6292 22.5509 17.7776 22.4024L24.1525 16.0275C24.301 15.8789 24.3752 15.7033 24.3752 15.5002C24.3752 15.2971 24.301 15.1211 24.1525 14.9726Z" fill="white"/>
</svg>
