<svg width="30" height="30" viewBox="0 0 30 30" fill="none" xmlns="http://www.w3.org/2000/svg">
<rect width="30" height="30" rx="6" fill="#1D2731"/>
<path d="M8.16686 19H13.1669C13.4762 18.9997 13.7729 18.8767 13.9916 18.6579C14.2104 18.4391 14.3334 18.1425 14.3337 17.8331V15.1669C14.3334 14.8575 14.2104 14.5609 13.9916 14.3421C13.7729 14.1233 13.4762 14.0003 13.1669 14H8.16686C7.85748 14.0003 7.56086 14.1233 7.3421 14.3421C7.12334 14.5609 7.0003 14.8575 7 15.1669V17.8337C7.00045 18.143 7.12355 18.4395 7.3423 18.6581C7.56105 18.8767 7.85758 18.9997 8.16686 19Z" fill="white"/>
<path d="M22.4999 14H16.1667C16.0341 14 15.907 14.0527 15.8132 14.1464C15.7194 14.2402 15.6667 14.3674 15.6667 14.5C15.6667 14.6326 15.7194 14.7598 15.8132 14.8536C15.907 14.9473 16.0341 15 16.1667 15H22.4999C22.6325 15 22.7597 14.9473 22.8534 14.8536C22.9472 14.7598 22.9999 14.6326 22.9999 14.5C22.9999 14.3674 22.9472 14.2402 22.8534 14.1464C22.7597 14.0527 22.6325 14 22.4999 14Z" fill="white"/>
<path d="M22.4999 16H16.1667C16.0341 16 15.907 16.0527 15.8132 16.1464C15.7194 16.2402 15.6667 16.3674 15.6667 16.5C15.6667 16.6326 15.7194 16.7598 15.8132 16.8536C15.907 16.9473 16.0341 17 16.1667 17H22.4999C22.6325 17 22.7597 16.9473 22.8534 16.8536C22.9472 16.7598 22.9999 16.6326 22.9999 16.5C22.9999 16.3674 22.9472 16.2402 22.8534 16.1464C22.7597 16.0527 22.6325 16 22.4999 16Z" fill="white"/>
<path d="M22.4999 18H16.1667C16.0341 18 15.907 18.0527 15.8132 18.1464C15.7194 18.2402 15.6667 18.3674 15.6667 18.5C15.6667 18.6326 15.7194 18.7598 15.8132 18.8536C15.907 18.9473 16.0341 19 16.1667 19H22.4999C22.6325 19 22.7597 18.9473 22.8534 18.8536C22.9472 18.7598 22.9999 18.6326 22.9999 18.5C22.9999 18.3674 22.9472 18.2402 22.8534 18.1464C22.7597 18.0527 22.6325 18 22.4999 18Z" fill="white"/>
<path d="M22.5 20H7.5C7.36739 20 7.24021 20.0527 7.14645 20.1464C7.05268 20.2402 7 20.3674 7 20.5C7 20.6326 7.05268 20.7598 7.14645 20.8536C7.24021 20.9473 7.36739 21 7.5 21H22.5C22.6326 21 22.7598 20.9473 22.8536 20.8536C22.9473 20.7598 23 20.6326 23 20.5C23 20.3674 22.9473 20.2402 22.8536 20.1464C22.7598 20.0527 22.6326 20 22.5 20Z" fill="white"/>
<path d="M22.5 22H7.5C7.36739 22 7.24021 22.0527 7.14645 22.1464C7.05268 22.2402 7 22.3674 7 22.5C7 22.6326 7.05268 22.7598 7.14645 22.8536C7.24021 22.9473 7.36739 23 7.5 23H22.5C22.6326 23 22.7598 22.9473 22.8536 22.8536C22.9473 22.7598 23 22.6326 23 22.5C23 22.3674 22.9473 22.2402 22.8536 22.1464C22.7598 22.0527 22.6326 22 22.5 22Z" fill="white"/>
<path d="M21.8331 7H8.16686C7.85748 7.0003 7.56086 7.12334 7.3421 7.3421C7.12334 7.56086 7.0003 7.85748 7 8.16686V11.8331C7.0003 12.1425 7.12334 12.4391 7.3421 12.6579C7.56086 12.8767 7.85748 12.9997 8.16686 13H21.8331C22.1425 12.9997 22.4391 12.8767 22.6579 12.6579C22.8767 12.4391 22.9997 12.1425 23 11.8331V8.16686C22.9997 7.85748 22.8767 7.56086 22.6579 7.3421C22.4391 7.12334 22.1425 7.0003 21.8331 7Z" fill="white"/>
</svg>
