<svg width="30" height="30" viewBox="0 0 30 30" fill="none" xmlns="http://www.w3.org/2000/svg">
<rect width="30" height="30" rx="6" fill="#1D2731"/>
<path d="M19.9668 7H14.469C14.1211 7 13.7869 7.13853 13.5407 7.38472L6.38456 14.5395C5.87181 15.0523 5.87181 15.8835 6.38456 16.3969L11.8823 21.8946C12.3951 22.4074 13.2262 22.4074 13.739 21.8946L20.8951 14.7398C21.1413 14.4929 21.2798 14.1588 21.2798 13.8101V8.31305C21.2798 7.58759 20.6922 7 19.9668 7ZM17.6689 11.5957C17.1253 11.5957 16.6841 11.1545 16.6841 10.6109C16.6841 10.0673 17.1253 9.62611 17.6689 9.62611C18.2125 9.62611 18.6537 10.0673 18.6537 10.6109C18.6537 11.1545 18.2125 11.5957 17.6689 11.5957Z" fill="white"/>
<path d="M22.593 8.31348L22.5924 14.4251C22.5924 14.7277 22.4722 15.0186 22.2575 15.2326L14.9858 22.5043L15.0974 22.6159C15.6102 23.1287 16.4414 23.1287 16.9541 22.6159L23.5207 16.0506C23.7675 15.8044 23.9061 15.4703 23.9061 15.1223V9.62653C23.9061 8.90107 23.3185 8.31348 22.593 8.31348Z" fill="white"/>
</svg>
