<svg width="60" height="60" viewBox="0 0 60 60" fill="none" xmlns="http://www.w3.org/2000/svg">
<path d="M47.5044 0H12.5016C9.18628 0.000318139 6.00681 1.31738 3.66241 3.66156C1.31801 6.00574 0.000636385 9.18507 0 12.5004L0 47.5032C0.00159069 50.8179 1.31938 53.9963 3.66368 56.3397C6.00798 58.6831 9.1869 59.9997 12.5016 60H47.5044C50.8183 59.9987 53.996 58.6817 56.3391 56.3383C58.6823 53.9949 59.9991 50.8171 60 47.5032V12.5004C60 9.18592 58.6837 6.00712 56.3404 3.66298C53.9972 1.31884 50.8189 0.00127272 47.5044 0V0ZM47.16 23.094C47.682 34.638 39.0744 47.508 23.8332 47.508C19.3712 47.5136 15.0021 46.2333 11.2488 43.8204C15.5892 44.341 19.9589 43.1193 23.4 40.4232C21.6875 40.3909 20.0279 39.8242 18.6534 38.8021C17.2789 37.7801 16.2583 36.3539 15.7344 34.7232C16.9643 34.9581 18.2314 34.9101 19.44 34.5828C17.5655 34.203 15.8823 33.1811 14.6805 31.6932C13.4788 30.2054 12.8338 28.3448 12.8568 26.4324C13.9968 27.0673 15.2725 27.4196 16.5768 27.4596C14.8403 26.2977 13.6113 24.5182 13.1394 22.4828C12.6676 20.4474 12.9883 18.3087 14.0364 16.5012C16.0965 19.0367 18.6666 21.1107 21.5801 22.5886C24.4936 24.0666 27.6853 24.9154 30.948 25.08C30.5375 23.3201 30.7191 21.4739 31.4645 19.8276C32.2099 18.1814 33.4776 16.827 35.071 15.9744C36.6644 15.1219 38.4946 14.8188 40.2778 15.1121C42.061 15.4054 43.6976 16.2788 44.934 17.5968C46.7734 17.2331 48.5372 16.5578 50.1492 15.6C49.5363 17.5008 48.2541 19.1144 46.5408 20.1408C48.1672 19.947 49.7555 19.5114 51.2532 18.8484C50.1523 20.4959 48.7662 21.9336 47.16 23.094Z" fill="#1D2731"/>
</svg>
