<svg width="21" height="21" viewBox="0 0 21 21" fill="none" xmlns="http://www.w3.org/2000/svg">
<path d="M1.5315 15.75H8.094C8.50006 15.7496 8.88937 15.5881 9.17649 15.301C9.46362 15.0139 9.6251 14.6246 9.6255 14.2185V10.719C9.6251 10.3129 9.46362 9.92363 9.17649 9.6365C8.88937 9.34938 8.50006 9.1879 8.094 9.1875H1.5315C1.12544 9.1879 0.73613 9.34938 0.449005 9.6365C0.161879 9.92363 0.000397122 10.3129 0 10.719L0 14.2192C0.00059559 14.6252 0.162165 15.0143 0.449269 15.3013C0.736374 15.5882 1.12557 15.7496 1.5315 15.75Z" fill="#FAFAFA"/>
<path d="M20.3435 9.1875H12.0312C11.8572 9.1875 11.6903 9.25664 11.5672 9.37971C11.4441 9.50278 11.375 9.6697 11.375 9.84375C11.375 10.0178 11.4441 10.1847 11.5672 10.3078C11.6903 10.4309 11.8572 10.5 12.0312 10.5H20.3435C20.5175 10.5 20.6845 10.4309 20.8075 10.3078C20.9306 10.1847 20.9998 10.0178 20.9998 9.84375C20.9998 9.6697 20.9306 9.50278 20.8075 9.37971C20.6845 9.25664 20.5175 9.1875 20.3435 9.1875Z" fill="#FAFAFA"/>
<path d="M20.3435 11.8125H12.0312C11.8572 11.8125 11.6903 11.8816 11.5672 12.0047C11.4441 12.1278 11.375 12.2947 11.375 12.4688C11.375 12.6428 11.4441 12.8097 11.5672 12.9328C11.6903 13.0559 11.8572 13.125 12.0312 13.125H20.3435C20.5175 13.125 20.6845 13.0559 20.8075 12.9328C20.9306 12.8097 20.9998 12.6428 20.9998 12.4688C20.9998 12.2947 20.9306 12.1278 20.8075 12.0047C20.6845 11.8816 20.5175 11.8125 20.3435 11.8125Z" fill="#FAFAFA"/>
<path d="M20.3435 14.4375H12.0312C11.8572 14.4375 11.6903 14.5066 11.5672 14.6297C11.4441 14.7528 11.375 14.9197 11.375 15.0938C11.375 15.2678 11.4441 15.4347 11.5672 15.5578C11.6903 15.6809 11.8572 15.75 12.0312 15.75H20.3435C20.5175 15.75 20.6845 15.6809 20.8075 15.5578C20.9306 15.4347 20.9998 15.2678 20.9998 15.0938C20.9998 14.9197 20.9306 14.7528 20.8075 14.6297C20.6845 14.5066 20.5175 14.4375 20.3435 14.4375Z" fill="#FAFAFA"/>
<path d="M20.3438 17.0625H0.65625C0.482202 17.0625 0.315282 17.1316 0.192211 17.2547C0.0691404 17.3778 0 17.5447 0 17.7188C0 17.8928 0.0691404 18.0597 0.192211 18.1828C0.315282 18.3059 0.482202 18.375 0.65625 18.375H20.3438C20.5178 18.375 20.6847 18.3059 20.8078 18.1828C20.9309 18.0597 21 17.8928 21 17.7188C21 17.5447 20.9309 17.3778 20.8078 17.2547C20.6847 17.1316 20.5178 17.0625 20.3438 17.0625Z" fill="#FAFAFA"/>
<path d="M20.3438 19.6875H0.65625C0.482202 19.6875 0.315282 19.7566 0.192211 19.8797C0.0691404 20.0028 0 20.1697 0 20.3438C0 20.5178 0.0691404 20.6847 0.192211 20.8078C0.315282 20.9309 0.482202 21 0.65625 21H20.3438C20.5178 21 20.6847 20.9309 20.8078 20.8078C20.9309 20.6847 21 20.5178 21 20.3438C21 20.1697 20.9309 20.0028 20.8078 19.8797C20.6847 19.7566 20.5178 19.6875 20.3438 19.6875Z" fill="#FAFAFA"/>
<path d="M19.4685 0H1.5315C1.12544 0.000397122 0.73613 0.161879 0.449005 0.449005C0.161879 0.73613 0.000397122 1.12544 0 1.5315V6.3435C0.000397122 6.74956 0.161879 7.13887 0.449005 7.426C0.73613 7.71312 1.12544 7.8746 1.5315 7.875H19.4685C19.8746 7.8746 20.2639 7.71312 20.551 7.426C20.8381 7.13887 20.9996 6.74956 21 6.3435V1.5315C20.9996 1.12544 20.8381 0.73613 20.551 0.449005C20.2639 0.161879 19.8746 0.000397122 19.4685 0Z" fill="#FAFAFA"/>
</svg>
