<svg width="20" height="20" viewBox="0 0 20 20" fill="none" xmlns="http://www.w3.org/2000/svg">
<path d="M20 10C20 4.48276 15.5172 0 10 0C4.48276 0 0 4.48276 0 10C0 15.5172 4.48276 20 10 20C15.5172 20 20 15.5172 20 10ZM11.5172 13.9655C11.5172 14.2586 11.5172 14.4828 10 14.4828C8.48276 14.4828 8.48276 14.2586 8.48276 13.9655V13.1034C8.48276 12.8103 8.48276 12.5862 10 12.5862C11.5172 12.5862 11.5 13 11.5172 13.1034V13.9655ZM11.5172 10.5172C11.5 12 10.2931 12.0345 10 12.0345C9.7069 12.0345 8.5 12 8.48276 10.5172V6.03448C8.48276 4.51724 9.7069 4.51724 10 4.51724C10.2931 4.51724 11.5172 4.51724 11.5172 6.03448V10.5172Z" fill="#FFC107"/>
</svg>
