<svg width="60" height="60" viewBox="0 0 60 60" fill="none" xmlns="http://www.w3.org/2000/svg">
<path d="M25.002 23.334L38.3352 29.9892L25.002 36.6708V23.334ZM60 12.5004V47.5032C59.9991 50.8171 58.6823 53.9949 56.3391 56.3383C53.996 58.6817 50.8183 59.9987 47.5044 60H12.5016C9.1869 59.9997 6.00798 58.6831 3.66368 56.3397C1.31938 53.9963 0.00159069 50.8179 0 47.5032L0 12.5004C0.000636385 9.18507 1.31801 6.00574 3.66241 3.66156C6.00681 1.31738 9.18628 0.000318139 12.5016 0L47.5044 0C50.8189 0.00127272 53.9972 1.31884 56.3404 3.66298C58.6837 6.00712 60 9.18592 60 12.5004ZM50.004 30C49.9536 19.692 49.1964 15.7488 42.696 15.306C36.6876 14.8956 23.3088 14.898 17.3112 15.306C10.8156 15.7512 10.0512 19.68 10.0008 30C10.0512 40.308 10.8084 44.2512 17.3088 44.694C23.3088 45.102 36.6852 45.1044 42.6936 44.694C49.1892 44.2512 49.9536 40.326 50.004 30Z" fill="#1D2731"/>
</svg>
