<svg width="30" height="30" viewBox="0 0 30 30" fill="none" xmlns="http://www.w3.org/2000/svg">
<path d="M13.0035 0.036765C9.55475 0.036765 6.24726 1.40664 3.80863 3.84503C1.37001 6.28342 0 9.59059 0 13.039C0 16.4874 1.37001 19.7946 3.80863 22.233C6.24726 24.6714 9.55475 26.0412 13.0035 26.0412C15.1541 26.0585 17.2747 25.5359 19.1709 24.5213C19.317 24.6971 19.4789 24.859 19.6547 25.005L23.3703 28.7202C23.7129 29.1078 24.1313 29.4211 24.5996 29.6409C25.0679 29.8607 25.5763 29.9823 26.0934 29.9982C26.6105 30.0141 27.1254 29.924 27.6063 29.7334C28.0873 29.5428 28.5241 29.2558 28.8899 28.89C29.2557 28.5242 29.5428 28.0875 29.7334 27.6066C29.924 27.1257 30.0141 26.6108 29.9982 26.0938C29.9823 25.5767 29.8607 25.0684 29.6409 24.6001C29.4211 24.1319 29.1077 23.7135 28.7201 23.3709L25.0046 19.6557C24.8237 19.4744 24.6246 19.3123 24.4105 19.172C25.4659 17.2868 26.0281 15.1656 26.0447 13.0051C26.0416 9.55724 24.6706 6.25141 22.2325 3.81319C19.7944 1.37498 16.4885 0.00358646 13.0403 0L13.0035 0.036765ZM13.0035 3.75197C14.225 3.74607 15.4355 3.98229 16.5652 4.44697C17.6948 4.91164 18.7212 5.59557 19.5849 6.45922C20.4486 7.32286 21.1326 8.34911 21.5973 9.47864C22.062 10.6082 22.2983 11.8186 22.2924 13.04C22.3145 15.4023 21.4381 17.6849 19.8405 19.4255L19.7292 19.5367C19.5534 19.6828 19.3915 19.8447 19.2454 20.0205C17.5164 21.5552 15.2776 22.3906 12.9658 22.3638C10.5022 22.3638 8.13952 21.3852 6.39751 19.6434C4.65551 17.9015 3.67686 15.5391 3.67686 13.0758C3.67686 10.6124 4.65551 8.24999 6.39751 6.50816C8.13952 4.76632 10.5022 3.78776 12.9658 3.78776L13.0035 3.75197Z" fill="black"/>
</svg>
