<svg width="216" height="50" viewBox="0 0 216 50" fill="none" xmlns="http://www.w3.org/2000/svg">
<path d="M90.1992 14.9902V20H87.2695V5.78125H92.8164C93.8841 5.78125 94.8216 5.97656 95.6289 6.36719C96.4427 6.75781 97.0677 7.31445 97.5039 8.03711C97.9401 8.75326 98.1582 9.57031 98.1582 10.4883C98.1582 11.8815 97.6797 12.9818 96.7227 13.7891C95.7721 14.5898 94.4538 14.9902 92.7676 14.9902H90.1992ZM90.1992 12.6172H92.8164C93.5911 12.6172 94.1803 12.4349 94.584 12.0703C94.9941 11.7057 95.1992 11.1849 95.1992 10.5078C95.1992 9.8112 94.9941 9.24805 94.584 8.81836C94.1738 8.38867 93.6074 8.16732 92.8848 8.1543H90.1992V12.6172ZM105.932 12.0801C105.548 12.028 105.209 12.002 104.916 12.002C103.848 12.002 103.148 12.3633 102.816 13.0859V20H99.9941V9.43359H102.66L102.738 10.6934C103.305 9.72331 104.089 9.23828 105.092 9.23828C105.404 9.23828 105.697 9.2806 105.971 9.36523L105.932 12.0801ZM106.508 14.6191C106.508 13.571 106.71 12.6367 107.113 11.8164C107.517 10.9961 108.096 10.3613 108.852 9.91211C109.613 9.46289 110.495 9.23828 111.498 9.23828C112.924 9.23828 114.086 9.67448 114.984 10.5469C115.889 11.4193 116.394 12.6042 116.498 14.1016L116.518 14.8242C116.518 16.4453 116.065 17.7474 115.16 18.7305C114.255 19.707 113.041 20.1953 111.518 20.1953C109.994 20.1953 108.777 19.707 107.865 18.7305C106.96 17.7539 106.508 16.4258 106.508 14.7461V14.6191ZM109.33 14.8242C109.33 15.8268 109.519 16.5951 109.896 17.1289C110.274 17.6562 110.814 17.9199 111.518 17.9199C112.201 17.9199 112.735 17.6595 113.119 17.1387C113.503 16.6113 113.695 15.7715 113.695 14.6191C113.695 13.6361 113.503 12.8743 113.119 12.334C112.735 11.7936 112.195 11.5234 111.498 11.5234C110.808 11.5234 110.274 11.7936 109.896 12.334C109.519 12.8678 109.33 13.6979 109.33 14.8242ZM117.846 14.6387C117.846 13.0176 118.23 11.7122 118.998 10.7227C119.773 9.73307 120.814 9.23828 122.123 9.23828C123.282 9.23828 124.184 9.63542 124.828 10.4297L124.945 9.43359H127.504V19.6484C127.504 20.5729 127.292 21.377 126.869 22.0605C126.452 22.7441 125.863 23.265 125.102 23.623C124.34 23.9811 123.448 24.1602 122.426 24.1602C121.651 24.1602 120.896 24.0039 120.16 23.6914C119.424 23.3854 118.868 22.9883 118.49 22.5L119.74 20.7812C120.443 21.569 121.296 21.9629 122.299 21.9629C123.048 21.9629 123.63 21.7611 124.047 21.3574C124.464 20.9603 124.672 20.3939 124.672 19.6582V19.0918C124.021 19.8275 123.165 20.1953 122.104 20.1953C120.834 20.1953 119.805 19.7005 119.018 18.7109C118.236 17.7148 117.846 16.3965 117.846 14.7559V14.6387ZM120.668 14.8438C120.668 15.8008 120.86 16.5527 121.244 17.0996C121.628 17.64 122.156 17.9102 122.826 17.9102C123.686 17.9102 124.301 17.5879 124.672 16.9434V12.5C124.294 11.8555 123.686 11.5332 122.846 11.5332C122.169 11.5332 121.635 11.8099 121.244 12.3633C120.86 12.9167 120.668 13.7435 120.668 14.8438ZM135.619 12.0801C135.235 12.028 134.896 12.002 134.604 12.002C133.536 12.002 132.836 12.3633 132.504 13.0859V20H129.682V9.43359H132.348L132.426 10.6934C132.992 9.72331 133.777 9.23828 134.779 9.23828C135.092 9.23828 135.385 9.2806 135.658 9.36523L135.619 12.0801ZM142.816 20C142.686 19.7461 142.592 19.4303 142.533 19.0527C141.85 19.8145 140.961 20.1953 139.867 20.1953C138.832 20.1953 137.973 19.8958 137.289 19.2969C136.612 18.6979 136.273 17.9427 136.273 17.0312C136.273 15.9115 136.687 15.0521 137.514 14.4531C138.347 13.8542 139.548 13.5514 141.117 13.5449H142.416V12.9395C142.416 12.4512 142.289 12.0605 142.035 11.7676C141.788 11.4746 141.394 11.3281 140.854 11.3281C140.378 11.3281 140.004 11.4421 139.73 11.6699C139.464 11.8978 139.33 12.2103 139.33 12.6074H136.508C136.508 11.9954 136.697 11.429 137.074 10.9082C137.452 10.3874 137.986 9.98047 138.676 9.6875C139.366 9.38802 140.141 9.23828 141 9.23828C142.302 9.23828 143.334 9.56706 144.096 10.2246C144.864 10.8757 145.248 11.7936 145.248 12.9785V17.5586C145.255 18.5612 145.395 19.3197 145.668 19.834V20H142.816ZM140.482 18.0371C140.899 18.0371 141.283 17.946 141.635 17.7637C141.986 17.5749 142.247 17.3242 142.416 17.0117V15.1953H141.361C139.949 15.1953 139.197 15.6836 139.105 16.6602L139.096 16.8262C139.096 17.1777 139.219 17.4674 139.467 17.6953C139.714 17.9232 140.053 18.0371 140.482 18.0371ZM150.062 9.43359L150.15 10.6152C150.899 9.69727 151.911 9.23828 153.188 9.23828C154.548 9.23828 155.482 9.77539 155.99 10.8496C156.732 9.77539 157.79 9.23828 159.164 9.23828C160.31 9.23828 161.163 9.57357 161.723 10.2441C162.283 10.9082 162.562 11.9108 162.562 13.252V20H159.73V13.2617C159.73 12.6628 159.613 12.2266 159.379 11.9531C159.145 11.6732 158.731 11.5332 158.139 11.5332C157.292 11.5332 156.706 11.9368 156.381 12.7441L156.391 20H153.568V13.2715C153.568 12.6595 153.448 12.2168 153.207 11.9434C152.966 11.6699 152.556 11.5332 151.977 11.5332C151.176 11.5332 150.596 11.8652 150.238 12.5293V20H147.416V9.43359H150.062ZM167.387 9.43359L167.475 10.6152C168.223 9.69727 169.236 9.23828 170.512 9.23828C171.872 9.23828 172.807 9.77539 173.314 10.8496C174.057 9.77539 175.115 9.23828 176.488 9.23828C177.634 9.23828 178.487 9.57357 179.047 10.2441C179.607 10.9082 179.887 11.9108 179.887 13.252V20H177.055V13.2617C177.055 12.6628 176.938 12.2266 176.703 11.9531C176.469 11.6732 176.055 11.5332 175.463 11.5332C174.617 11.5332 174.031 11.9368 173.705 12.7441L173.715 20H170.893V13.2715C170.893 12.6595 170.772 12.2168 170.531 11.9434C170.29 11.6699 169.88 11.5332 169.301 11.5332C168.5 11.5332 167.921 11.8652 167.562 12.5293V20H164.74V9.43359H167.387ZM185.043 20H182.211V9.43359H185.043V20ZM182.045 6.69922C182.045 6.27604 182.185 5.92773 182.465 5.6543C182.751 5.38086 183.139 5.24414 183.627 5.24414C184.109 5.24414 184.493 5.38086 184.779 5.6543C185.066 5.92773 185.209 6.27604 185.209 6.69922C185.209 7.12891 185.062 7.48047 184.77 7.75391C184.483 8.02734 184.102 8.16406 183.627 8.16406C183.152 8.16406 182.768 8.02734 182.475 7.75391C182.188 7.48047 182.045 7.12891 182.045 6.69922ZM189.975 9.43359L190.062 10.6543C190.818 9.71029 191.83 9.23828 193.1 9.23828C194.219 9.23828 195.053 9.56706 195.6 10.2246C196.146 10.8822 196.426 11.8652 196.439 13.1738V20H193.617V13.2422C193.617 12.6432 193.487 12.2103 193.227 11.9434C192.966 11.6699 192.533 11.5332 191.928 11.5332C191.133 11.5332 190.538 11.8717 190.141 12.5488V20H187.318V9.43359H189.975ZM198.178 14.6387C198.178 13.0176 198.562 11.7122 199.33 10.7227C200.105 9.73307 201.146 9.23828 202.455 9.23828C203.614 9.23828 204.516 9.63542 205.16 10.4297L205.277 9.43359H207.836V19.6484C207.836 20.5729 207.624 21.377 207.201 22.0605C206.785 22.7441 206.195 23.265 205.434 23.623C204.672 23.9811 203.78 24.1602 202.758 24.1602C201.983 24.1602 201.228 24.0039 200.492 23.6914C199.757 23.3854 199.2 22.9883 198.822 22.5L200.072 20.7812C200.775 21.569 201.628 21.9629 202.631 21.9629C203.38 21.9629 203.962 21.7611 204.379 21.3574C204.796 20.9603 205.004 20.3939 205.004 19.6582V19.0918C204.353 19.8275 203.497 20.1953 202.436 20.1953C201.166 20.1953 200.137 19.7005 199.35 18.7109C198.568 17.7148 198.178 16.3965 198.178 14.7559V14.6387ZM201 14.8438C201 15.8008 201.192 16.5527 201.576 17.0996C201.96 17.64 202.488 17.9102 203.158 17.9102C204.018 17.9102 204.633 17.5879 205.004 16.9434V12.5C204.626 11.8555 204.018 11.5332 203.178 11.5332C202.501 11.5332 201.967 11.8099 201.576 12.3633C201.192 12.9167 201 13.7435 201 14.8438Z" fill="#1976D2"/>
<path d="M96.2734 39.1621L97.6602 32.4336H100.385L97.6895 43H95.3262L93.3242 36.3496L91.3223 43H88.9688L86.2734 32.4336H88.998L90.375 39.1523L92.3086 32.4336H94.3496L96.2734 39.1621ZM104.77 43H101.938V32.4336H104.77V43ZM101.771 29.6992C101.771 29.276 101.911 28.9277 102.191 28.6543C102.478 28.3809 102.865 28.2441 103.354 28.2441C103.835 28.2441 104.219 28.3809 104.506 28.6543C104.792 28.9277 104.936 29.276 104.936 29.6992C104.936 30.1289 104.789 30.4805 104.496 30.7539C104.21 31.0273 103.829 31.1641 103.354 31.1641C102.878 31.1641 102.494 31.0273 102.201 30.7539C101.915 30.4805 101.771 30.1289 101.771 29.6992ZM110.482 29.8359V32.4336H112.289V34.5039H110.482V39.7773C110.482 40.168 110.557 40.4479 110.707 40.6172C110.857 40.7865 111.143 40.8711 111.566 40.8711C111.879 40.8711 112.156 40.8483 112.396 40.8027V42.9414C111.843 43.1107 111.273 43.1953 110.688 43.1953C108.708 43.1953 107.699 42.196 107.66 40.1973V34.5039H106.117V32.4336H107.66V29.8359H110.482ZM116.615 33.5859C117.364 32.6875 118.305 32.2383 119.438 32.2383C121.729 32.2383 122.891 33.5697 122.924 36.2324V43H120.102V36.3105C120.102 35.7051 119.971 35.2591 119.711 34.9727C119.451 34.6797 119.018 34.5332 118.412 34.5332C117.585 34.5332 116.986 34.8522 116.615 35.4902V43H113.793V28H116.615V33.5859ZM133.148 37.9902V43H130.219V28.7812H135.766C136.833 28.7812 137.771 28.9766 138.578 29.3672C139.392 29.7578 140.017 30.3145 140.453 31.0371C140.889 31.7533 141.107 32.5703 141.107 33.4883C141.107 34.8815 140.629 35.9818 139.672 36.7891C138.721 37.5898 137.403 37.9902 135.717 37.9902H133.148ZM133.148 35.6172H135.766C136.54 35.6172 137.13 35.4349 137.533 35.0703C137.943 34.7057 138.148 34.1849 138.148 33.5078C138.148 32.8112 137.943 32.248 137.533 31.8184C137.123 31.3887 136.557 31.1673 135.834 31.1543H133.148V35.6172ZM147.67 43.1953C146.12 43.1953 144.857 42.7201 143.881 41.7695C142.911 40.819 142.426 39.5527 142.426 37.9707V37.6973C142.426 36.6361 142.631 35.6888 143.041 34.8555C143.451 34.0156 144.031 33.3711 144.779 32.9219C145.535 32.4661 146.394 32.2383 147.357 32.2383C148.803 32.2383 149.939 32.694 150.766 33.6055C151.599 34.5169 152.016 35.8092 152.016 37.4824V38.6348H145.287C145.378 39.3249 145.652 39.8783 146.107 40.2949C146.57 40.7116 147.152 40.9199 147.855 40.9199C148.943 40.9199 149.792 40.526 150.404 39.7383L151.791 41.291C151.368 41.89 150.795 42.3587 150.072 42.6973C149.35 43.0293 148.549 43.1953 147.67 43.1953ZM147.348 34.5234C146.788 34.5234 146.332 34.7122 145.98 35.0898C145.635 35.4674 145.414 36.0078 145.316 36.7109H149.242V36.4863C149.229 35.8613 149.06 35.3796 148.734 35.041C148.409 34.696 147.947 34.5234 147.348 34.5234ZM157.006 29.8359V32.4336H158.812V34.5039H157.006V39.7773C157.006 40.168 157.081 40.4479 157.23 40.6172C157.38 40.7865 157.667 40.8711 158.09 40.8711C158.402 40.8711 158.679 40.8483 158.92 40.8027V42.9414C158.367 43.1107 157.797 43.1953 157.211 43.1953C155.232 43.1953 154.223 42.196 154.184 40.1973V34.5039H152.641V32.4336H154.184V29.8359H157.006ZM165.248 43.1953C163.699 43.1953 162.436 42.7201 161.459 41.7695C160.489 40.819 160.004 39.5527 160.004 37.9707V37.6973C160.004 36.6361 160.209 35.6888 160.619 34.8555C161.029 34.0156 161.609 33.3711 162.357 32.9219C163.113 32.4661 163.972 32.2383 164.936 32.2383C166.381 32.2383 167.517 32.694 168.344 33.6055C169.177 34.5169 169.594 35.8092 169.594 37.4824V38.6348H162.865C162.956 39.3249 163.23 39.8783 163.686 40.2949C164.148 40.7116 164.73 40.9199 165.434 40.9199C166.521 40.9199 167.37 40.526 167.982 39.7383L169.369 41.291C168.946 41.89 168.373 42.3587 167.65 42.6973C166.928 43.0293 166.127 43.1953 165.248 43.1953ZM164.926 34.5234C164.366 34.5234 163.91 34.7122 163.559 35.0898C163.214 35.4674 162.992 36.0078 162.895 36.7109H166.82V36.4863C166.807 35.8613 166.638 35.3796 166.312 35.041C165.987 34.696 165.525 34.5234 164.926 34.5234ZM177.143 35.0801C176.758 35.028 176.42 35.002 176.127 35.002C175.059 35.002 174.359 35.3633 174.027 36.0859V43H171.205V32.4336H173.871L173.949 33.6934C174.516 32.7233 175.3 32.2383 176.303 32.2383C176.615 32.2383 176.908 32.2806 177.182 32.3652L177.143 35.0801Z" fill="#42A5F5"/>
<path d="M69.4857 0H6.51429C2.91655 0 0 2.91988 0 6.52174V43.4783C0 47.0801 2.91655 50 6.51429 50H69.4857C73.0835 50 76 47.0801 76 43.4783V6.52174C76 2.91988 73.0835 0 69.4857 0Z" fill="#1976D2"/>
<path d="M51.2061 13.3345L62.8688 25.0106" stroke="#FAFAFA" stroke-width="6" stroke-linecap="round"/>
<path d="M51.332 36.82L57.0499 31.0944L62.7673 25.3689" stroke="#FAFAFA" stroke-width="6" stroke-linecap="round"/>
<path d="M25.2242 13.0427L13.5723 24.7079" stroke="#FAFAFA" stroke-width="6" stroke-linecap="round"/>
<path d="M25.2239 36.6711L19.506 30.9455L13.7881 25.22" stroke="#FAFAFA" stroke-width="6" stroke-linecap="round"/>
<path d="M31.7578 36.6838L44.2435 13.3142" stroke="#FAFAFA" stroke-width="3" stroke-linecap="round"/>
</svg>
